<svg width="27" height="19" viewBox="0 0 27 19" fill="none" xmlns="http://www.w3.org/2000/svg">
<path d="M0.527344 7.03366C0.527344 3.15296 3.68328 0.00976562 7.57971 0.00976562H8.04987C9.09009 0.00976562 9.9305 0.846779 9.9305 1.8828C9.9305 2.91883 9.09009 3.75584 8.04987 3.75584H7.57971C5.76372 3.75584 4.2886 5.225 4.2886 7.03366V7.50191H8.04987C10.1244 7.50191 11.8111 9.1818 11.8111 11.248V14.9941C11.8111 17.0603 10.1244 18.7401 8.04987 18.7401H4.2886C2.21403 18.7401 0.527344 17.0603 0.527344 14.9941V13.121V11.248V7.03366ZM15.5724 7.03366C15.5724 3.15296 18.7283 0.00976562 22.6248 0.00976562H23.0949C24.1351 0.00976562 24.9755 0.846779 24.9755 1.8828C24.9755 2.91883 24.1351 3.75584 23.0949 3.75584H22.6248C20.8088 3.75584 19.3337 5.225 19.3337 7.03366V7.50191H23.0949C25.1695 7.50191 26.8562 9.1818 26.8562 11.248V14.9941C26.8562 17.0603 25.1695 18.7401 23.0949 18.7401H19.3337C17.2591 18.7401 15.5724 17.0603 15.5724 14.9941V13.121V11.248V7.03366Z" fill="#E5E7EB"/>
</svg>
