<svg width="15" height="17" viewBox="0 0 15 17" fill="none" xmlns="http://www.w3.org/2000/svg">
<path d="M7.50575 0.954834C6.95262 0.954834 6.50575 1.40171 6.50575 1.95483V2.55483C4.2245 3.01733 2.50575 5.03608 2.50575 7.45483V8.04233C2.50575 9.51108 1.96512 10.9298 0.990124 12.0298L0.758874 12.2892C0.496374 12.583 0.433874 13.0048 0.593249 13.3642C0.752624 13.7236 1.112 13.9548 1.50575 13.9548H13.5057C13.8995 13.9548 14.2557 13.7236 14.4183 13.3642C14.5808 13.0048 14.5151 12.583 14.2526 12.2892L14.0214 12.0298C13.0464 10.9298 12.5057 9.51421 12.5057 8.04233V7.45483C12.5057 5.03608 10.787 3.01733 8.50575 2.55483V1.95483C8.50575 1.40171 8.05887 0.954834 7.50575 0.954834ZM8.92137 16.3705C9.29637 15.9955 9.50575 15.4861 9.50575 14.9548H7.50575H5.50575C5.50575 15.4861 5.71512 15.9955 6.09012 16.3705C6.46512 16.7455 6.9745 16.9548 7.50575 16.9548C8.037 16.9548 8.54637 16.7455 8.92137 16.3705Z" fill="#EAB308"/>
</svg>
