<svg width="12" height="17" viewBox="0 0 12 17" fill="none" xmlns="http://www.w3.org/2000/svg">
<path d="M8.6001 12.6001C8.9001 11.6032 9.52197 10.7532 10.1376 9.90635C10.3001 9.68447 10.4626 9.4626 10.6188 9.2376C11.2376 8.34697 11.6001 7.26885 11.6001 6.10322C11.6001 3.0626 9.1376 0.600098 6.1001 0.600098C3.0626 0.600098 0.600098 3.0626 0.600098 6.1001C0.600098 7.26572 0.962598 8.34697 1.58135 9.23447C1.7376 9.45947 1.9001 9.68135 2.0626 9.90322C2.68135 10.7501 3.30322 11.6032 3.6001 12.597H8.6001V12.6001ZM6.1001 16.6001C7.48135 16.6001 8.6001 15.4813 8.6001 14.1001V13.6001H3.6001V14.1001C3.6001 15.4813 4.71885 16.6001 6.1001 16.6001ZM3.6001 6.1001C3.6001 6.3751 3.3751 6.6001 3.1001 6.6001C2.8251 6.6001 2.6001 6.3751 2.6001 6.1001C2.6001 4.16572 4.16572 2.6001 6.1001 2.6001C6.3751 2.6001 6.6001 2.8251 6.6001 3.1001C6.6001 3.3751 6.3751 3.6001 6.1001 3.6001C4.71885 3.6001 3.6001 4.71885 3.6001 6.1001Z" fill="#854D0E"/>
</svg>
