<svg width="58" height="48" viewBox="0 0 58 48" fill="none" xmlns="http://www.w3.org/2000/svg">
<path d="M0.845215 24C0.845215 10.7452 11.5904 0 24.8452 0H33.8373C47.0921 0 57.8373 10.7452 57.8373 24C57.8373 37.2548 47.0921 48 33.8373 48H24.8452C11.5904 48 0.845215 37.2548 0.845215 24Z" fill="#00F2EA" fill-opacity="0.1"/>
<g clip-path="url(#clip0_374_1013)">
<path d="M25.0952 13.2998C25.7866 13.2998 26.3452 13.8584 26.3452 14.5498V15.7998H31.3452V14.5498C31.3452 13.8584 31.9038 13.2998 32.5952 13.2998C33.2866 13.2998 33.8452 13.8584 33.8452 14.5498V15.7998H35.7202C36.7554 15.7998 37.5952 16.6396 37.5952 17.6748V19.5498H20.0952V17.6748C20.0952 16.6396 20.9351 15.7998 21.9702 15.7998H23.8452V14.5498C23.8452 13.8584 24.4038 13.2998 25.0952 13.2998ZM20.0952 20.7998H37.5952V31.4248C37.5952 32.46 36.7554 33.2998 35.7202 33.2998H21.9702C20.9351 33.2998 20.0952 32.46 20.0952 31.4248V20.7998ZM32.9468 25.2139C33.314 24.8467 33.314 24.2529 32.9468 23.8896C32.5796 23.5264 31.9858 23.5225 31.6226 23.8896L27.9116 27.6006L26.0757 25.7646C25.7085 25.3975 25.1147 25.3975 24.7515 25.7646C24.3882 26.1318 24.3843 26.7256 24.7515 27.0889L27.2515 29.5889C27.6187 29.9561 28.2124 29.9561 28.5757 29.5889L32.9468 25.2139Z" fill="#00F2EA"/>
</g>
<defs>
<clipPath id="clip0_374_1013">
<rect width="17.5" height="20" fill="white" transform="translate(20.0952 13.2998)"/>
</clipPath>
</defs>
</svg>
