<svg width="65" height="64" viewBox="0 0 65 64" fill="none" xmlns="http://www.w3.org/2000/svg">
<path d="M0.133301 32C0.133301 14.3269 14.4602 0 32.1333 0C49.8064 0 64.1333 14.3269 64.1333 32C64.1333 49.6731 49.8064 64 32.1333 64C14.4602 64 0.133301 49.6731 0.133301 32Z" fill="#FF0050" fill-opacity="0.1"/>
<g clip-path="url(#clip0_374_944)">
<path d="M32.1333 20C30.1739 20 28.5052 21.2516 27.8911 23H26.1333C24.4786 23 23.1333 24.3453 23.1333 26V41C23.1333 42.6547 24.4786 44 26.1333 44H38.1333C39.788 44 41.1333 42.6547 41.1333 41V26C41.1333 24.3453 39.788 23 38.1333 23H36.3755C35.7614 21.2516 34.0927 20 32.1333 20ZM32.1333 23C32.5311 23 32.9127 23.158 33.194 23.4393C33.4753 23.7206 33.6333 24.1022 33.6333 24.5C33.6333 24.8978 33.4753 25.2794 33.194 25.5607C32.9127 25.842 32.5311 26 32.1333 26C31.7355 26 31.3539 25.842 31.0726 25.5607C30.7913 25.2794 30.6333 24.8978 30.6333 24.5C30.6333 24.1022 30.7913 23.7206 31.0726 23.4393C31.3539 23.158 31.7355 23 32.1333 23ZM37.4302 32.7969L31.4302 38.7969C30.9896 39.2375 30.2771 39.2375 29.8411 38.7969L26.8364 35.7969C26.3958 35.3562 26.3958 34.6438 26.8364 34.2078C27.2771 33.7719 27.9896 33.7672 28.4255 34.2078L30.6286 36.4109L35.8364 31.2031C36.2771 30.7625 36.9896 30.7625 37.4255 31.2031C37.8614 31.6438 37.8661 32.3562 37.4255 32.7922L37.4302 32.7969Z" fill="#FF0050"/>
</g>
<defs>
<clipPath id="clip0_374_944">
<rect width="18" height="24" fill="white" transform="translate(23.1333 20)"/>
</clipPath>
</defs>
</svg>
