<svg width="77" height="64" viewBox="0 0 77 64" fill="none" xmlns="http://www.w3.org/2000/svg">
<path d="M0.187988 32C0.187988 14.3269 14.5149 0 32.188 0H44.1775C61.8506 0 76.1774 14.3269 76.1774 32C76.1774 49.6731 61.8505 64 44.1774 64H32.188C14.5149 64 0.187988 49.6731 0.187988 32Z" fill="#25D366" fill-opacity="0.1"/>
<g clip-path="url(#clip0_374_753)">
<path d="M38.188 19.8C41.3706 19.8 44.4228 21.0643 46.6733 23.3148C48.9237 25.5652 50.188 28.6175 50.188 31.8C50.188 34.9826 48.9237 38.0349 46.6733 40.2853C44.4228 42.5358 41.3706 43.8 38.188 43.8C35.0054 43.8 31.9531 42.5358 29.7027 40.2853C27.4523 38.0349 26.188 34.9826 26.188 31.8C26.188 28.6175 27.4523 25.5652 29.7027 23.3148C31.9531 21.0643 35.0054 19.8 38.188 19.8ZM37.063 25.425V31.8C37.063 32.175 37.2505 32.5266 37.5646 32.7375L42.0646 35.7375C42.5802 36.0844 43.2786 35.9438 43.6255 35.4235C43.9724 34.9032 43.8317 34.2094 43.3114 33.8625L39.313 31.2V25.425C39.313 24.8016 38.8114 24.3 38.188 24.3C37.5646 24.3 37.063 24.8016 37.063 25.425Z" fill="#25D366"/>
</g>
<defs>
<clipPath id="clip0_374_753">
<rect width="24" height="24" fill="white" transform="translate(26.188 19.8)"/>
</clipPath>
</defs>
</svg>
