<svg width="77" height="64" viewBox="0 0 77 64" fill="none" xmlns="http://www.w3.org/2000/svg">
<path d="M0.63916 32C0.63916 14.3269 14.966 0 32.6392 0H44.6286C62.3017 0 76.6286 14.3269 76.6286 32C76.6286 49.6731 62.3017 64 44.6286 64H32.6391C14.966 64 0.63916 49.6731 0.63916 32Z" fill="#FF0050" fill-opacity="0.1"/>
<g clip-path="url(#clip0_374_741)">
<path d="M50.6392 23.55C50.6392 24.3938 49.9688 25.1719 48.8392 25.8C47.4751 26.5547 45.4407 27.0891 43.1063 27.2485C42.9329 27.1641 42.7595 27.0844 42.5767 27.0141C40.7298 26.2407 38.2735 25.8 35.6392 25.8C35.2501 25.8 34.8704 25.8094 34.4907 25.8282L34.4392 25.8C33.3095 25.1719 32.6392 24.3938 32.6392 23.55C32.6392 21.4782 36.6704 19.8 41.6392 19.8C46.6079 19.8 50.6392 21.4782 50.6392 23.55ZM34.172 27.3516C34.6501 27.3188 35.1423 27.3 35.6392 27.3C38.5548 27.3 41.1423 27.8766 42.7876 28.7719C43.9501 29.4047 44.6392 30.1922 44.6392 31.05C44.6392 31.2375 44.6063 31.4204 44.5407 31.5985C44.3251 32.2172 43.7438 32.7844 42.9001 33.2625C42.8954 33.2672 42.886 33.2672 42.8813 33.2719C42.8673 33.2813 42.8532 33.286 42.8392 33.2954C41.1985 34.2047 38.5829 34.7954 35.6392 34.7954C32.8454 34.7954 30.347 34.2657 28.6923 33.4313C28.6032 33.3891 28.5188 33.3422 28.4345 33.2954C27.3095 32.6719 26.6392 31.8938 26.6392 31.05C26.6392 29.4188 29.1423 28.0266 32.6392 27.5157C33.1313 27.4454 33.6423 27.3891 34.172 27.3516ZM46.1392 31.05C46.1392 30.0235 45.6423 29.1797 45.0095 28.5469C46.336 28.3407 47.5501 28.0125 48.5813 27.586C49.3454 27.2672 50.0579 26.8735 50.6392 26.3907V28.05C50.6392 28.9547 49.8657 29.7891 48.586 30.436C47.9017 30.7829 47.0673 31.0782 46.1298 31.3032C46.1345 31.2188 46.1392 31.1391 46.1392 31.0547V31.05ZM44.6392 35.55C44.6392 36.3938 43.9688 37.1719 42.8392 37.8C42.7548 37.8469 42.6704 37.8891 42.5813 37.936C40.9313 38.7704 38.4329 39.3 35.6392 39.3C32.6954 39.3 30.0798 38.7094 28.4392 37.8C27.3095 37.1719 26.6392 36.3938 26.6392 35.55V33.8907C27.2251 34.3735 27.9329 34.7672 28.697 35.086C30.5485 35.8594 33.0048 36.3 35.6392 36.3C38.2735 36.3 40.7298 35.8594 42.5813 35.086C42.947 34.936 43.2985 34.7625 43.6313 34.575C43.9173 34.4157 44.1845 34.2375 44.4376 34.05C44.5079 33.9985 44.5735 33.9422 44.6392 33.8907V34.05V34.3172V35.55ZM46.1392 35.55V34.05V32.836C47.0298 32.6391 47.8501 32.3907 48.5813 32.086C49.3454 31.7672 50.0579 31.3735 50.6392 30.8907V32.55C50.6392 33.0422 50.4048 33.5344 49.9407 33.9985C49.1767 34.7625 47.8313 35.3907 46.1298 35.7985C46.1345 35.7188 46.1392 35.6344 46.1392 35.55ZM35.6392 40.8C38.2735 40.8 40.7298 40.3594 42.5813 39.586C43.3454 39.2672 44.0579 38.8735 44.6392 38.3907V40.05C44.6392 42.1219 40.6079 43.8 35.6392 43.8C30.6704 43.8 26.6392 42.1219 26.6392 40.05V38.3907C27.2251 38.8735 27.9329 39.2672 28.697 39.586C30.5485 40.3594 33.0048 40.8 35.6392 40.8Z" fill="#FF0050"/>
</g>
<defs>
<clipPath id="clip0_374_741">
<rect width="24" height="24" fill="white" transform="translate(26.6392 19.8)"/>
</clipPath>
</defs>
</svg>
