<svg width="65" height="64" viewBox="0 0 65 64" fill="none" xmlns="http://www.w3.org/2000/svg">
<path d="M0.342773 32C0.342773 14.3269 14.6697 0 32.3428 0C50.0159 0 64.3428 14.3269 64.3428 32C64.3428 49.6731 50.0159 64 32.3428 64C14.6697 64 0.342773 49.6731 0.342773 32Z" fill="#FF0050" fill-opacity="0.1"/>
<g clip-path="url(#clip0_374_936)">
<path d="M26.3428 20C24.6881 20 23.3428 21.3453 23.3428 23V41C23.3428 42.6547 24.6881 44 26.3428 44H38.3428C39.9975 44 41.3428 42.6547 41.3428 41V27.5H35.3428C34.5131 27.5 33.8428 26.8297 33.8428 26V20H26.3428ZM35.3428 20V26H41.3428L35.3428 20ZM28.5928 32H36.0928C36.5053 32 36.8428 32.3375 36.8428 32.75C36.8428 33.1625 36.5053 33.5 36.0928 33.5H28.5928C28.1803 33.5 27.8428 33.1625 27.8428 32.75C27.8428 32.3375 28.1803 32 28.5928 32ZM28.5928 35H36.0928C36.5053 35 36.8428 35.3375 36.8428 35.75C36.8428 36.1625 36.5053 36.5 36.0928 36.5H28.5928C28.1803 36.5 27.8428 36.1625 27.8428 35.75C27.8428 35.3375 28.1803 35 28.5928 35ZM28.5928 38H36.0928C36.5053 38 36.8428 38.3375 36.8428 38.75C36.8428 39.1625 36.5053 39.5 36.0928 39.5H28.5928C28.1803 39.5 27.8428 39.1625 27.8428 38.75C27.8428 38.3375 28.1803 38 28.5928 38Z" fill="#FF9800"/>
</g>
<defs>
<clipPath id="clip0_374_936">
<rect width="18" height="24" fill="white" transform="translate(23.3428 20)"/>
</clipPath>
</defs>
</svg>
