<svg width="32" height="32" viewBox="0 0 32 32" fill="none" xmlns="http://www.w3.org/2000/svg">
<path d="M0 16C0 7.16344 7.16344 0 16 0C24.8366 0 32 7.16344 32 16C32 24.8366 24.8366 32 16 32C7.16344 32 0 24.8366 0 16Z" fill="#FF0050"/>
<path d="M15.8952 26.3459C17.6209 26.3459 18.6068 25.5356 18.8404 24.4858H12.9507C13.1843 25.5356 14.1694 26.3459 15.8952 26.3459Z" fill="#D0CFCE"/>
<path d="M19.3231 6.84767C19.3231 6.84767 14.9068 5.59931 12.7509 7.30592C10.5951 9.01253 10.4395 12.9393 10.4395 12.9393C10.6507 13.7384 11.9655 16.0062 11.9655 16.0062C12.1605 16.3351 12.7791 18.7076 13.1388 20.1084H18.8876C19.2004 19.081 20.4585 15.3598 20.6228 14.977C20.8337 14.4848 21.1933 13.5268 21.375 13.1653C21.8119 12.2954 21.796 11.5284 21.5693 10.6278C21.0789 8.6832 20.6759 8.20003 19.3228 6.84695L19.3231 6.84767Z" fill="#FCEA2B"/>
<path d="M15.8951 5.60069C12.8141 5.60069 9.93676 8.03892 9.93676 11.1185C9.93676 11.5081 9.84143 12.7402 10.3762 12.7402C10.3762 12.7402 11.2404 9.91453 13.3958 8.20828C15.5513 6.50203 19.0003 6.86314 19.0003 6.86314C18.7605 6.12466 16.9961 5.59961 15.8962 5.59961L15.8951 5.60069Z" fill="white"/>
<path d="M15.9998 20.0518V15.7401M18.1557 15.7401H13.844M21.9762 11.5765C21.9762 13.0155 21.3316 13.7099 20.6206 15.3682C20.439 15.7914 19.1 20.1998 19.1 20.1998H12.8997C12.8997 20.1998 11.8232 15.9857 11.6192 15.6426C10.7634 14.1989 10.0234 13.1473 10.0234 11.5765C10.0234 8.27557 12.6993 5.6001 15.9998 5.6001C19.3004 5.6001 21.9762 8.27593 21.9762 11.5765Z" stroke="black" stroke-width="0.5" stroke-linecap="round" stroke-linejoin="round"/>
<path d="M18.9464 24.23C18.9464 25.4 17.6279 26.3486 16.0015 26.3486C14.3751 26.3486 13.0566 25.4 13.0566 24.23H18.9464Z" stroke="black" stroke-width="0.424" stroke-linecap="round" stroke-linejoin="round"/>
<path d="M13.1074 22.8541L18.8924 21.6011" stroke="black" stroke-width="0.49125" stroke-linecap="round" stroke-linejoin="round"/>
<path d="M16.7943 23.2478L18.8815 22.8217M13.1182 21.6336L15.2054 21.2075" stroke="black" stroke-width="0.5" stroke-linecap="round" stroke-linejoin="round"/>
</svg>
