<svg width="58" height="48" viewBox="0 0 58 48" fill="none" xmlns="http://www.w3.org/2000/svg">
<path d="M0.578125 24C0.578125 10.7452 11.3233 0 24.5781 0H33.5702C46.825 0 57.5702 10.7452 57.5702 24C57.5702 37.2548 46.825 48 33.5702 48H24.5781C11.3233 48 0.578125 37.2548 0.578125 24Z" fill="#FF0050" fill-opacity="0.1"/>
<g clip-path="url(#clip0_374_1002)">
<path d="M26.0508 13.5108C26.3555 13.2256 26.8281 13.2295 27.1328 13.5147C28.2109 14.5264 29.2227 15.6162 30.168 16.7959C30.5977 16.2334 31.0859 15.6201 31.6133 15.1201C31.9219 14.8311 32.3984 14.8311 32.707 15.124C34.0586 16.4131 35.2031 18.1162 36.0078 19.7334C36.8008 21.3272 37.3281 22.9561 37.3281 24.1045C37.3281 29.0889 33.4297 33.2998 28.5781 33.2998C23.6719 33.2998 19.8281 29.085 19.8281 24.1006C19.8281 22.6006 20.5234 20.7686 21.6016 18.9561C22.6914 17.1162 24.2305 15.1983 26.0508 13.5108ZM28.6445 29.5498C29.6328 29.5498 30.5078 29.2764 31.332 28.7295C32.9766 27.5811 33.418 25.2842 32.4297 23.4795C32.2539 23.1279 31.8047 23.1045 31.5508 23.4014L30.5664 24.5459C30.3086 24.8428 29.8438 24.835 29.6016 24.5264C28.957 23.7061 27.8047 22.2412 27.1484 21.4092C26.9023 21.0967 26.4336 21.0928 26.1836 21.4053C24.8633 23.0654 24.1992 24.1123 24.1992 25.2881C24.2031 27.9639 26.1797 29.5498 28.6445 29.5498Z" fill="#FF0050"/>
</g>
<defs>
<clipPath id="clip0_374_1002">
<rect width="17.5" height="20" fill="white" transform="translate(19.8281 13.2998)"/>
</clipPath>
</defs>
</svg>
