<svg width="64" height="57" viewBox="0 0 64 57" fill="none" xmlns="http://www.w3.org/2000/svg">
<rect x="0.125977" width="27" height="28" rx="13.5" fill="#25D366"/>
<path d="M12.392 19.738C11.412 19.738 10.6373 19.514 10.068 19.066C9.50798 18.618 9.19998 18.0113 9.14398 17.246C9.21864 17.0313 9.33998 16.8727 9.50798 16.77C9.67598 16.6673 9.85798 16.616 10.054 16.616C10.3433 16.616 10.572 16.7047 10.74 16.882C10.908 17.05 11.0106 17.3393 11.048 17.75L11.272 19.29L10.796 18.94C11.0106 19.052 11.1973 19.1313 11.356 19.178C11.524 19.2247 11.734 19.248 11.986 19.248C12.63 19.248 13.148 19.0193 13.54 18.562C13.932 18.0953 14.128 17.4187 14.128 16.532C14.128 15.7293 13.9366 15.1087 13.554 14.67C13.1713 14.2313 12.6533 14.012 12 14.012C11.7386 14.012 11.4866 14.0353 11.244 14.082C11.0013 14.1193 10.7586 14.1753 10.516 14.25L10.096 13.97L10.432 9.042H16.158V10.778H10.726L11.09 9.49L10.782 13.914L10.194 13.732C10.6046 13.5547 11.0106 13.4333 11.412 13.368C11.8226 13.2933 12.252 13.256 12.7 13.256C13.8853 13.256 14.8186 13.5267 15.5 14.068C16.1813 14.6 16.522 15.3887 16.522 16.434C16.522 17.1527 16.3446 17.7593 15.99 18.254C15.6353 18.7393 15.1453 19.108 14.52 19.36C13.904 19.612 13.1946 19.738 12.392 19.738Z" fill="white"/>
<path d="M28.5494 44.233L25.5319 41.2157C24.7019 40.3856 24.409 39.1845 24.78 38.0714C25.073 37.2023 25.4636 36.0696 25.9323 34.7709H15.6008C14.761 34.7709 13.9798 34.3217 13.5599 33.5893C13.14 32.8569 13.1498 31.9586 13.5794 31.236L18.7061 22.5941C19.9756 20.4556 22.2703 19.147 24.7507 19.147H32.7874C33.0217 18.7564 33.2561 18.3951 33.4905 18.0436C41.4881 6.24765 53.4016 5.85705 60.5106 7.16554C61.6433 7.37061 62.5223 8.25921 62.737 9.39194C64.0456 16.5105 63.6452 28.4139 51.8587 36.4113C51.5169 36.6457 51.1458 36.8801 50.7552 37.1145V45.1509C50.7552 47.6312 49.4467 49.9357 47.3082 51.1954L38.6661 56.3219C37.9434 56.7516 37.045 56.7613 36.3126 56.3415C35.5803 55.9216 35.131 55.1502 35.131 54.3006V43.8326C33.7542 44.3112 32.553 44.7018 31.6449 44.9947C30.5512 45.3463 29.3599 45.0435 28.5397 44.233H28.5494ZM50.7552 23.053C51.7912 23.053 52.7847 22.6415 53.5172 21.909C54.2498 21.1765 54.6613 20.183 54.6613 19.147C54.6613 18.1111 54.2498 17.1176 53.5172 16.3851C52.7847 15.6526 51.7912 15.2411 50.7552 15.2411C49.7193 15.2411 48.7258 15.6526 47.9933 16.3851C47.2608 17.1176 46.8492 18.1111 46.8492 19.147C46.8492 20.183 47.2608 21.1765 47.9933 21.909C48.7258 22.6415 49.7193 23.053 50.7552 23.053Z" fill="#25D366"/>
</svg>
