<svg width="17" height="16" viewBox="0 0 17 16" fill="none" xmlns="http://www.w3.org/2000/svg">
<g clip-path="url(#clip0_374_711)">
<path d="M0.606283 4.37319L1.05297 12.8325C1.07892 13.324 1.37922 13.7736 1.84977 13.9213C4.27223 14.6833 6.61581 13.9517 8.9594 13.22C11.1091 12.5507 13.2587 11.8786 15.4664 12.3589C16.1035 12.4978 16.7825 12.0293 16.748 11.3767L16.3015 2.92012C16.2755 2.42861 15.9752 1.97898 15.5047 1.83132C13.0822 1.06933 10.7387 1.80095 8.39506 2.53258C6.24534 3.20195 4.09561 3.87131 1.88791 3.39096C1.24807 3.25225 0.571822 3.72059 0.606283 4.37319ZM8.81565 10.4977C7.60874 10.5614 6.56919 9.43886 6.49278 7.99166C6.41636 6.54446 7.3319 5.31869 8.53881 5.25496C9.74573 5.19123 10.7853 6.31376 10.8617 7.76096C10.9381 9.20816 10.0226 10.4339 8.81565 10.4977ZM2.69917 10.8206C3.66306 10.7697 4.48812 11.512 4.53901 12.4759L2.79145 12.5682L2.69917 10.8206ZM4.14683 5.04877C4.19773 6.01266 3.45544 6.83771 2.49154 6.88861L2.39927 5.14104L4.14683 5.04877ZM14.8629 8.86401L14.9552 10.6116L13.2076 10.7039C13.1567 9.73996 13.899 8.91491 14.8629 8.86401ZM12.8155 3.2767L14.563 3.18442L14.6553 4.93199C13.6914 4.98288 12.8663 4.24059 12.8155 3.2767Z" fill="#1F2937"/>
</g>
<defs>
<clipPath id="clip0_374_711">
<rect width="15.75" height="14" fill="white" transform="translate(0.443848 1.30133) rotate(-3.02264)"/>
</clipPath>
</defs>
</svg>
