<svg width="56" height="66" viewBox="0 0 56 66" fill="none" xmlns="http://www.w3.org/2000/svg">
<rect x="27.917" width="28" height="28" rx="14" fill="#FF2D55"/>
<path d="M41.579 18.71V15.658V15.364V9.12H41.327L41.817 8.994L39.997 11.808L37.911 15.028L38.065 14.412V14.678H45.107V16.134H37.379V14.958L42.013 7.86H43.581V18.71H41.579Z" fill="white"/>
<path d="M4.58366 14C2.56695 14 0.916992 15.6714 0.916992 17.7143V62.2857C0.916992 64.3285 2.56695 66 4.58366 66H41.2503C43.267 66 44.917 64.3285 44.917 62.2857V25.1428L33.917 14H4.58366ZM4.58366 17.7143H30.2503V28.8571H41.2503V62.2857H4.58366V17.7143ZM8.25033 36.2857V40H37.5837V36.2857H8.25033ZM8.25033 43.7142V47.4285H37.5837V43.7142H8.25033ZM8.25033 51.1428V54.8572H26.5837V51.1428H8.25033Z" fill="#FF2D55"/>
</svg>
