<svg width="58" height="49" viewBox="0 0 58 49" fill="none" xmlns="http://www.w3.org/2000/svg">
<path d="M0.32959 24.6001C0.32959 11.3453 11.0748 0.600098 24.3296 0.600098H33.3217C46.5765 0.600098 57.3217 11.3453 57.3217 24.6001C57.3217 37.8549 46.5765 48.6001 33.3217 48.6001H24.3296C11.0748 48.6001 0.32959 37.8549 0.32959 24.6001Z" fill="#22C55E"/>
<g clip-path="url(#clip0_374_1369)">
<path d="M25.771 16.5874L27.1304 18.8999H27.0796H24.2671C23.4038 18.8999 22.7046 18.2007 22.7046 17.3374C22.7046 16.4741 23.4038 15.7749 24.2671 15.7749H24.353C24.9351 15.7749 25.478 16.0835 25.771 16.5874ZM20.8296 17.3374C20.8296 17.8999 20.9663 18.4312 21.2046 18.8999H19.5796C18.8882 18.8999 18.3296 19.4585 18.3296 20.1499V22.6499C18.3296 23.3413 18.8882 23.8999 19.5796 23.8999H37.0796C37.771 23.8999 38.3296 23.3413 38.3296 22.6499V20.1499C38.3296 19.4585 37.771 18.8999 37.0796 18.8999H35.4546C35.6929 18.4312 35.8296 17.8999 35.8296 17.3374C35.8296 15.439 34.2905 13.8999 32.3921 13.8999H32.3062C31.0601 13.8999 29.9038 14.5601 29.271 15.6343L28.3296 17.2397L27.3882 15.6382C26.7554 14.5601 25.5991 13.8999 24.353 13.8999H24.2671C22.3687 13.8999 20.8296 15.439 20.8296 17.3374ZM33.9546 17.3374C33.9546 18.2007 33.2554 18.8999 32.3921 18.8999H29.5796H29.5288L30.8882 16.5874C31.1851 16.0835 31.7241 15.7749 32.3062 15.7749H32.3921C33.2554 15.7749 33.9546 16.4741 33.9546 17.3374ZM19.5796 25.1499V32.0249C19.5796 33.0601 20.4194 33.8999 21.4546 33.8999H27.0796V25.1499H19.5796ZM29.5796 33.8999H35.2046C36.2397 33.8999 37.0796 33.0601 37.0796 32.0249V25.1499H29.5796V33.8999Z" fill="white"/>
</g>
<defs>
<clipPath id="clip0_374_1369">
<rect width="20" height="20" fill="white" transform="translate(18.3296 13.8999)"/>
</clipPath>
</defs>
</svg>
