<svg width="65" height="64" viewBox="0 0 65 64" fill="none" xmlns="http://www.w3.org/2000/svg">
<path d="M0.0161133 32C0.0161133 14.3269 14.343 0 32.0161 0C49.6892 0 64.0161 14.3269 64.0161 32C64.0161 49.6731 49.6892 64 32.0161 64C14.343 64 0.0161133 49.6731 0.0161133 32Z" fill="#FF0050" fill-opacity="0.1"/>
<g clip-path="url(#clip0_374_904)">
<path d="M32.0163 21.5C31.6367 21.5 31.2617 21.5656 30.9054 21.6922L17.757 26.4406C17.3117 26.6047 17.0163 27.0266 17.0163 27.5C17.0163 27.9734 17.3117 28.3953 17.757 28.5594L20.471 29.5391C19.7023 30.7484 19.2663 32.1781 19.2663 33.6828V35C19.2663 36.3313 18.7601 37.7047 18.221 38.7875C17.9163 39.3969 17.5695 39.9969 17.1663 40.55C17.0163 40.7516 16.9742 41.0141 17.0585 41.2531C17.1429 41.4922 17.3398 41.6703 17.5835 41.7313L20.5835 42.4813C20.7804 42.5328 20.9913 42.4953 21.1648 42.3875C21.3382 42.2797 21.4601 42.1016 21.4976 41.9C21.9007 39.8938 21.6992 38.0938 21.3992 36.8047C21.2492 36.1391 21.0476 35.4594 20.7663 34.8359V33.6828C20.7663 32.2672 21.2445 30.9312 22.0742 29.8625C22.6788 29.1359 23.4617 28.55 24.3804 28.1891L31.7398 25.2969C32.1242 25.1469 32.5601 25.3344 32.7101 25.7188C32.8601 26.1031 32.6726 26.5391 32.2882 26.6891L24.9288 29.5812C24.3476 29.8109 23.8367 30.1625 23.4195 30.5938L30.9007 33.2938C31.257 33.4203 31.632 33.4859 32.0117 33.4859C32.3913 33.4859 32.7663 33.4203 33.1226 33.2938L46.2757 28.5594C46.721 28.4 47.0163 27.9734 47.0163 27.5C47.0163 27.0266 46.721 26.6047 46.2757 26.4406L33.1273 21.6922C32.771 21.5656 32.396 21.5 32.0163 21.5ZM23.0163 39.125C23.0163 40.7797 27.0476 42.5 32.0163 42.5C36.9851 42.5 41.0163 40.7797 41.0163 39.125L40.2992 32.3094L33.6335 34.7188C33.1132 34.9062 32.5648 35 32.0163 35C31.4679 35 30.9148 34.9062 30.3992 34.7188L23.7335 32.3094L23.0163 39.125Z" fill="#FF0050"/>
</g>
<defs>
<clipPath id="clip0_374_904">
<rect width="30" height="24" fill="white" transform="translate(17.0161 20)"/>
</clipPath>
</defs>
</svg>
