<svg width="65" height="64" viewBox="0 0 65 64" fill="none" xmlns="http://www.w3.org/2000/svg">
<path d="M0.133301 32C0.133301 14.3269 14.4602 0 32.1333 0C49.8064 0 64.1333 14.3269 64.1333 32C64.1333 49.6731 49.8064 64 32.1333 64C14.4602 64 0.133301 49.6731 0.133301 32Z" fill="#FF0050" fill-opacity="0.1"/>
<g clip-path="url(#clip0_374_920)">
<path d="M34.7114 29.225V33.0359C34.7114 33.1344 34.6364 33.2094 34.538 33.2094H33.9286C33.8677 33.2094 33.8161 33.1766 33.788 33.1391L32.0396 30.7813V33.0406C32.0396 33.1391 31.9646 33.2141 31.8661 33.2141H31.2567C31.1583 33.2141 31.0833 33.1391 31.0833 33.0406V29.2297C31.0833 29.1313 31.1583 29.0563 31.2567 29.0563H31.8614C31.913 29.0563 31.9739 29.0844 32.0021 29.1313L33.7505 31.4891V29.2297C33.7505 29.1313 33.8255 29.0563 33.9239 29.0563H34.5333C34.6317 29.0516 34.7114 29.1313 34.7114 29.2203V29.225ZM30.3192 29.0516H29.7099C29.6114 29.0516 29.5364 29.1266 29.5364 29.225V33.0359C29.5364 33.1344 29.6114 33.2094 29.7099 33.2094H30.3192C30.4177 33.2094 30.4927 33.1344 30.4927 33.0359V29.225C30.4927 29.1359 30.4177 29.0516 30.3192 29.0516ZM28.8474 32.2438H27.1786V29.225C27.1786 29.1266 27.1036 29.0516 27.0052 29.0516H26.3958C26.2974 29.0516 26.2224 29.1266 26.2224 29.225V33.0359C26.2224 33.0828 26.2364 33.1203 26.2692 33.1531C26.3021 33.1813 26.3396 33.2 26.3864 33.2H28.8333C28.9317 33.2 29.0067 33.125 29.0067 33.0266V32.4172C29.0067 32.3281 28.9317 32.2438 28.8427 32.2438H28.8474ZM37.9271 29.0516H35.4755C35.3864 29.0516 35.3021 29.1266 35.3021 29.225V33.0359C35.3021 33.125 35.3771 33.2094 35.4755 33.2094H37.9224C38.0208 33.2094 38.0958 33.1344 38.0958 33.0359V32.4219C38.0958 32.3234 38.0208 32.2484 37.9224 32.2484H36.2583V31.6109H37.9224C38.0208 31.6109 38.0958 31.5359 38.0958 31.4375V30.8234C38.0958 30.725 38.0208 30.65 37.9224 30.65H36.2583V30.0078H37.9224C38.0208 30.0078 38.0958 29.9328 38.0958 29.8344V29.225C38.0911 29.1359 38.0161 29.0516 37.9224 29.0516H37.9271ZM44.1333 24.3781V39.6594C44.1286 42.0594 42.1599 44.0047 39.7552 44H24.4739C22.0739 43.9953 20.1286 42.0219 20.1333 39.6219V24.3406C20.138 21.9406 22.1114 19.9953 24.5114 20H39.7927C42.1927 20.0047 44.138 21.9734 44.1333 24.3781ZM40.8333 30.9453C40.8333 27.0359 36.9099 23.8531 32.0958 23.8531C27.2817 23.8531 23.3583 27.0359 23.3583 30.9453C23.3583 34.4469 26.4661 37.3859 30.6661 37.9438C31.688 38.1641 31.5708 38.5391 31.3411 39.9172C31.3036 40.1375 31.163 40.7797 32.0958 40.3906C33.0286 40.0016 37.1255 37.4281 38.963 35.3188C40.2286 33.9266 40.8333 32.5156 40.8333 30.9547V30.9453Z" fill="#25D366"/>
</g>
<defs>
<clipPath id="clip0_374_920">
<rect width="24" height="24" fill="white" transform="translate(20.1333 20)"/>
</clipPath>
</defs>
</svg>
