<svg width="58" height="48" viewBox="0 0 58 48" fill="none" xmlns="http://www.w3.org/2000/svg">
<path d="M0.126953 24C0.126953 10.7452 10.8721 0 24.127 0H33.119C46.3739 0 57.119 10.7452 57.119 24C57.119 37.2548 46.3739 48 33.119 48H24.127C10.8721 48 0.126953 37.2548 0.126953 24Z" fill="#25D366" fill-opacity="0.1"/>
<g clip-path="url(#clip0_374_1024)">
<path d="M21.877 13.2998C21.1855 13.2998 20.627 13.8584 20.627 14.5498C20.627 15.2412 21.1855 15.7998 21.877 15.7998V16.2295C21.877 17.8857 22.5371 19.4756 23.709 20.6475L26.3574 23.2998L23.709 25.9521C22.5371 27.124 21.877 28.7139 21.877 30.3701V30.7998C21.1855 30.7998 20.627 31.3584 20.627 32.0498C20.627 32.7412 21.1855 33.2998 21.877 33.2998H23.127H33.127H34.377C35.0684 33.2998 35.627 32.7412 35.627 32.0498C35.627 31.3584 35.0684 30.7998 34.377 30.7998V30.3701C34.377 28.7139 33.7168 27.124 32.5449 25.9521L29.8965 23.2998L32.5488 20.6475C33.7207 19.4756 34.3809 17.8857 34.3809 16.2295V15.7998C35.0723 15.7998 35.6309 15.2412 35.6309 14.5498C35.6309 13.8584 35.0723 13.2998 34.3809 13.2998H33.127H23.127H21.877ZM24.377 16.2295V15.7998H31.877V16.2295C31.877 16.9717 31.6582 17.6904 31.252 18.2998H25.002C24.5996 17.6904 24.377 16.9717 24.377 16.2295ZM25.002 28.2998C25.1387 28.0928 25.2988 27.8975 25.4746 27.7178L28.127 25.0693L30.7793 27.7217C30.959 27.9014 31.1152 28.0967 31.252 28.3037H25.002V28.2998Z" fill="#25D366"/>
</g>
<defs>
<clipPath id="clip0_374_1024">
<rect width="15" height="20" fill="white" transform="translate(20.627 13.2998)"/>
</clipPath>
</defs>
</svg>
