<svg width="171" height="32" viewBox="0 0 171 32" fill="none" xmlns="http://www.w3.org/2000/svg">
<g clip-path="url(#clip0_374_1419)">
<path d="M33.9998 13.6395C31.9361 13.6445 29.923 13.0009 28.2449 11.7997V20.1772C28.2444 21.7288 27.7701 23.2432 26.8856 24.518C26.0011 25.7928 24.7484 26.7672 23.2952 27.3109C21.842 27.8545 20.2574 27.9416 18.7533 27.5604C17.2493 27.1791 15.8975 26.3478 14.8786 25.1776C13.8598 24.0073 13.2225 22.554 13.052 21.0117C12.8815 19.4695 13.1859 17.912 13.9244 16.5475C14.663 15.1829 15.8006 14.0764 17.185 13.3758C18.5694 12.6752 20.1347 12.414 21.6716 12.627V16.8406C20.9684 16.6194 20.2131 16.6261 19.5139 16.8597C18.8146 17.0932 18.207 17.5418 17.7779 18.1413C17.3487 18.7408 17.12 19.4606 17.1244 20.1979C17.1287 20.9351 17.3659 21.6521 17.8021 22.2465C18.2382 22.8409 18.851 23.2823 19.553 23.5077C20.255 23.733 21.0102 23.7308 21.7109 23.5013C22.4115 23.2718 23.0217 22.8268 23.4544 22.2298C23.887 21.6329 24.1199 20.9144 24.1199 20.1772V3.79999H28.2449C28.2421 4.14833 28.2712 4.49621 28.3321 4.83921C28.4755 5.6049 28.7735 6.3333 29.208 6.97986C29.6425 7.62642 30.2043 8.17754 30.8591 8.59952C31.7907 9.2155 32.8829 9.54382 33.9998 9.54358V13.6395Z" fill="#FF0050"/>
</g>
<path d="M42.9 23.6V22.94L45.88 22.66H46.42L49.48 22.94V23.6H42.9ZM44.74 23.6C44.7667 22.4667 44.78 21.3267 44.78 20.18C44.7933 19.02 44.8 17.8533 44.8 16.68V15.72C44.8 14.56 44.7933 13.4067 44.78 12.26C44.78 11.1 44.7667 9.94001 44.74 8.78H47.72C47.68 9.91334 47.6533 11.0667 47.64 12.24C47.64 13.4 47.64 14.56 47.64 15.72V16.28C47.64 17.6267 47.64 18.8933 47.64 20.08C47.6533 21.2667 47.68 22.44 47.72 23.6H44.74ZM46.22 16.38V15.66H55.08V16.38H46.22ZM51.8 23.6V22.94L54.84 22.66H55.38L58.38 22.94V23.6H51.8ZM53.58 23.6C53.62 22.4667 53.64 21.3067 53.64 20.12C53.6533 18.9333 53.66 17.6533 53.66 16.28V15.72C53.66 14.56 53.6533 13.4067 53.64 12.26C53.64 11.1 53.62 9.94001 53.58 8.78H56.54C56.5133 9.91334 56.4933 11.0667 56.48 12.24C56.48 13.4 56.48 14.56 56.48 15.72V16.68C56.48 17.8267 56.48 18.98 56.48 20.14C56.4933 21.2867 56.5133 22.44 56.54 23.6H53.58ZM42.9 9.44001V8.78H49.48V9.44001L46.42 9.72001H45.88L42.9 9.44001ZM51.8 9.44001V8.78H58.38V9.44001L55.38 9.72001H54.84L51.8 9.44001ZM60.6792 29.02C60.1592 29.02 59.6859 28.8933 59.2592 28.64C58.8459 28.4 58.6259 28.06 58.5992 27.62C58.6659 27.2333 58.8459 26.9467 59.1392 26.76C59.4459 26.5733 59.7726 26.48 60.1192 26.48C60.4792 26.48 60.7926 26.5733 61.0592 26.76C61.3392 26.9467 61.6059 27.1867 61.8592 27.48L62.4592 28.2L61.7592 28.64L61.3592 28.3C61.9992 28.0333 62.5392 27.5933 62.9792 26.98C63.4326 26.3667 63.8659 25.5533 64.2792 24.54L64.8792 23.08L65.0592 22.6L66.7992 17.8L68.4192 12.88H69.2392L64.9392 24.46C64.5126 25.58 64.0726 26.4733 63.6192 27.14C63.1792 27.82 62.7192 28.3 62.2392 28.58C61.7592 28.8733 61.2392 29.02 60.6792 29.02ZM64.4192 25.04L59.3792 12.88H62.3192L65.4992 21.66L65.6192 21.88L64.4192 25.04ZM58.5592 13.46V12.88H64.2592V13.46L62.2992 13.68H60.5792L58.5592 13.46ZM66.1992 13.46V12.88H70.2992V13.46L68.6592 13.68H68.3192L66.1992 13.46ZM70.5334 23.6V23L71.9734 22.88C71.9868 22.4933 71.9934 22.0667 71.9934 21.6C71.9934 21.12 71.9934 20.6467 71.9934 20.18C72.0068 19.7 72.0134 19.2733 72.0134 18.9V8.66001L70.4534 8.54001V8.00001L74.4534 7.22L74.7134 7.4L74.6534 10.58V14.3L74.7134 14.5V22.02V22.06L74.2934 23.86L70.5334 23.6ZM77.8334 23.92C77.1534 23.92 76.5001 23.7533 75.8734 23.42C75.2601 23.0733 74.7134 22.54 74.2334 21.82H74.0134L74.3934 21.48C74.7801 21.9067 75.1601 22.2133 75.5334 22.4C75.9068 22.5733 76.3068 22.66 76.7334 22.66C77.2268 22.66 77.6868 22.5333 78.1134 22.28C78.5534 22.0133 78.9001 21.5533 79.1534 20.9C79.4201 20.2333 79.5534 19.3133 79.5534 18.14C79.5534 16.5933 79.2868 15.48 78.7534 14.8C78.2334 14.12 77.5734 13.78 76.7734 13.78C76.5068 13.78 76.2268 13.8133 75.9334 13.88C75.6534 13.9467 75.3534 14.0933 75.0334 14.32C74.7268 14.5333 74.3668 14.8667 73.9534 15.32L73.6934 14.74H74.0934C74.6401 13.9933 75.2534 13.4467 75.9334 13.1C76.6134 12.74 77.3201 12.56 78.0534 12.56C78.8934 12.56 79.6401 12.78 80.2934 13.22C80.9468 13.66 81.4601 14.3 81.8334 15.14C82.2201 15.9667 82.4134 16.98 82.4134 18.18C82.4134 19.2733 82.2201 20.2533 81.8334 21.12C81.4468 21.9867 80.9068 22.6733 80.2134 23.18C79.5334 23.6733 78.7401 23.92 77.8334 23.92ZM83.9109 23.6V23L86.0709 22.78H87.8109L90.0109 23V23.6H83.9109ZM85.3309 23.6C85.3576 23.2667 85.3709 22.82 85.3709 22.26C85.3843 21.7 85.3909 21.12 85.3909 20.52C85.4043 19.9067 85.4109 19.3667 85.4109 18.9V17.4C85.4109 16.72 85.4043 16.16 85.3909 15.72C85.3776 15.28 85.3576 14.8133 85.3309 14.32L83.7709 14.18V13.7L87.6909 12.6L87.9509 12.76L88.1109 15.62V15.64V18.9C88.1109 19.3667 88.1109 19.9067 88.1109 20.52C88.1243 21.12 88.1309 21.7 88.1309 22.26C88.1443 22.82 88.1576 23.2667 88.1709 23.6H85.3309ZM88.0909 17.2L87.4309 15.98H87.9709C88.1709 15.2467 88.4443 14.6267 88.7909 14.12C89.1509 13.6133 89.5509 13.2267 89.9909 12.96C90.4443 12.6933 90.8909 12.56 91.3309 12.56C91.7709 12.56 92.1576 12.66 92.4909 12.86C92.8376 13.06 93.0576 13.4067 93.1509 13.9C93.1376 14.3267 93.0243 14.68 92.8109 14.96C92.5976 15.2267 92.2643 15.36 91.8109 15.36C91.4776 15.36 91.1909 15.2667 90.9509 15.08C90.7109 14.8933 90.4643 14.64 90.2109 14.32L89.7509 13.78L90.4709 13.9C89.9109 14.1933 89.4376 14.6 89.0509 15.12C88.6776 15.6267 88.3576 16.32 88.0909 17.2ZM93.9909 23.6V23L96.1309 22.8H97.3709L99.5309 23V23.6H93.9909ZM95.4109 23.6C95.4243 23.2667 95.4309 22.82 95.4309 22.26C95.4443 21.7 95.4509 21.12 95.4509 20.52C95.4643 19.9067 95.4709 19.3667 95.4709 18.9V17.44C95.4709 16.7733 95.4643 16.2 95.4509 15.72C95.4509 15.24 95.4376 14.76 95.4109 14.28L93.8309 14.14V13.66L97.9709 12.6L98.2309 12.76L98.1509 15.84V18.9C98.1509 19.3667 98.1509 19.9067 98.1509 20.52C98.1643 21.12 98.1776 21.7 98.1909 22.26C98.2043 22.82 98.2176 23.2667 98.2309 23.6H95.4109ZM96.7109 10.5C96.2976 10.5 95.9376 10.3667 95.6309 10.1C95.3376 9.82001 95.1909 9.46001 95.1909 9.02001C95.1909 8.60667 95.3376 8.26667 95.6309 8.00001C95.9376 7.72001 96.2976 7.58 96.7109 7.58C97.1243 7.58 97.4776 7.72001 97.7709 8.00001C98.0776 8.26667 98.2309 8.60667 98.2309 9.02001C98.2309 9.46001 98.0776 9.82001 97.7709 10.1C97.4776 10.3667 97.1243 10.5 96.7109 10.5ZM105.544 23.92C104.69 23.92 103.917 23.6933 103.224 23.24C102.53 22.7867 101.984 22.1467 101.584 21.32C101.184 20.48 100.984 19.4867 100.984 18.34C100.984 17.1533 101.204 16.1267 101.644 15.26C102.084 14.3933 102.67 13.7267 103.404 13.26C104.15 12.7933 104.957 12.56 105.824 12.56C106.504 12.56 107.11 12.72 107.644 13.04C108.19 13.36 108.69 13.8533 109.144 14.52H109.324L108.984 14.86C108.624 14.4733 108.264 14.2 107.904 14.04C107.557 13.8667 107.197 13.78 106.824 13.78C106.277 13.78 105.777 13.92 105.324 14.2C104.884 14.48 104.524 14.9467 104.244 15.6C103.977 16.2533 103.844 17.1333 103.844 18.24C103.844 19.2933 103.97 20.1467 104.224 20.8C104.477 21.4533 104.817 21.9267 105.244 22.22C105.684 22.5133 106.17 22.66 106.704 22.66C107.117 22.66 107.504 22.58 107.864 22.42C108.224 22.2467 108.584 21.9667 108.944 21.58L109.324 21.98H109.104C108.664 22.6067 108.144 23.0867 107.544 23.42C106.944 23.7533 106.277 23.92 105.544 23.92ZM108.824 23.82L108.644 21.98V21.94V14.46L108.724 14.24V8.66001L107.024 8.54001V8.00001L111.104 7.22L111.384 7.4L111.324 10.54V22.9L112.804 23V23.6L108.824 23.82ZM114.248 23.6V22.94L117.308 22.66H117.608V23.6H114.248ZM116.128 23.6C116.154 22.44 116.168 21.2667 116.168 20.08C116.168 18.88 116.168 17.68 116.168 16.48V15.64C116.168 14.5067 116.168 13.3667 116.168 12.22C116.168 11.0733 116.154 9.92667 116.128 8.78H119.048C119.008 9.91334 118.981 11.0533 118.968 12.2C118.968 13.3467 118.968 14.52 118.968 15.72V16.12C118.968 17.4933 118.968 18.7933 118.968 20.02C118.981 21.2333 119.008 22.4267 119.048 23.6H116.128ZM117.608 23.6V22.88H120.288C121.421 22.88 122.308 22.6 122.948 22.04C123.601 21.4667 123.928 20.64 123.928 19.56C123.928 18.4267 123.614 17.5867 122.988 17.04C122.374 16.48 121.408 16.2 120.088 16.2H117.608V15.52H119.908C121.028 15.52 121.861 15.2467 122.408 14.7C122.968 14.14 123.248 13.3533 123.248 12.34C123.248 11.4467 123.008 10.7533 122.528 10.26C122.048 9.76667 121.254 9.52 120.148 9.52H117.608V8.78H120.908C122.121 8.78 123.101 8.93334 123.848 9.24001C124.594 9.53334 125.134 9.94001 125.468 10.46C125.814 10.98 125.988 11.5867 125.988 12.28C125.988 12.8267 125.834 13.3533 125.528 13.86C125.221 14.3533 124.708 14.7733 123.988 15.12C123.281 15.4667 122.308 15.7067 121.068 15.84L121.128 15.66C122.488 15.7267 123.581 15.9267 124.408 16.26C125.248 16.5933 125.861 17.04 126.248 17.6C126.634 18.1467 126.828 18.7867 126.828 19.52C126.828 20.0133 126.721 20.5067 126.508 21C126.308 21.48 125.961 21.92 125.468 22.32C124.988 22.7067 124.334 23.02 123.508 23.26C122.681 23.4867 121.648 23.6 120.408 23.6H117.608ZM114.248 9.44001V8.78H117.608V9.72001H117.308L114.248 9.44001ZM131.248 23.92C130.408 23.92 129.714 23.6867 129.168 23.22C128.634 22.74 128.368 22.08 128.368 21.24C128.368 20.6667 128.494 20.1667 128.748 19.74C129.001 19.3 129.421 18.9133 130.008 18.58C130.608 18.2333 131.408 17.92 132.408 17.64C132.941 17.4933 133.534 17.3333 134.188 17.16C134.854 16.9867 135.454 16.84 135.988 16.72V17.22C135.454 17.3533 134.921 17.5 134.388 17.66C133.854 17.8067 133.408 17.94 133.048 18.06C132.328 18.3533 131.788 18.7333 131.428 19.2C131.068 19.6533 130.888 20.2133 130.888 20.88C130.888 21.4933 131.034 21.9533 131.328 22.26C131.621 22.5533 132.014 22.7 132.508 22.7C132.721 22.7 132.948 22.6533 133.188 22.56C133.441 22.4533 133.728 22.2733 134.048 22.02C134.381 21.7533 134.768 21.38 135.208 20.9L135.528 21.96H134.828C134.441 22.3733 134.074 22.7267 133.728 23.02C133.394 23.3133 133.028 23.5333 132.628 23.68C132.241 23.84 131.781 23.92 131.248 23.92ZM136.828 23.9C136.148 23.9 135.628 23.7067 135.268 23.32C134.908 22.92 134.688 22.3867 134.608 21.72V21.66V15.98C134.608 15.26 134.541 14.7067 134.408 14.32C134.274 13.92 134.054 13.64 133.748 13.48C133.441 13.32 133.028 13.24 132.508 13.24C132.161 13.24 131.808 13.28 131.448 13.36C131.088 13.44 130.668 13.58 130.188 13.78L131.428 13.28L131.228 14.82C131.188 15.3933 131.041 15.8 130.788 16.04C130.548 16.28 130.254 16.4 129.908 16.4C129.254 16.4 128.848 16.0933 128.688 15.48C128.821 14.5733 129.288 13.86 130.088 13.34C130.901 12.82 132.008 12.56 133.408 12.56C134.741 12.56 135.708 12.8667 136.308 13.48C136.921 14.0933 137.228 15.0933 137.228 16.48V21.7C137.228 22.1667 137.288 22.4867 137.408 22.66C137.528 22.8333 137.694 22.92 137.908 22.92C138.054 22.92 138.194 22.8733 138.328 22.78C138.461 22.6867 138.621 22.5133 138.808 22.26L139.148 22.54C138.908 23.02 138.601 23.3667 138.228 23.58C137.854 23.7933 137.388 23.9 136.828 23.9ZM139.927 23.6V23L142.047 22.8H143.307L145.427 23V23.6H139.927ZM141.327 23.6C141.354 23.2667 141.367 22.82 141.367 22.26C141.38 21.7 141.387 21.12 141.387 20.52C141.4 19.9067 141.407 19.3667 141.407 18.9V17.4C141.407 16.7333 141.4 16.18 141.387 15.74C141.374 15.2867 141.354 14.8133 141.327 14.32L139.767 14.18V13.7L143.687 12.6L143.947 12.76L144.107 15.04V15.08V18.9C144.107 19.3667 144.107 19.9067 144.107 20.52C144.12 21.12 144.127 21.7 144.127 22.26C144.14 22.82 144.154 23.2667 144.167 23.6H141.327ZM146.827 23.6V23L148.907 22.8H150.167L152.327 23V23.6H146.827ZM148.207 23.6C148.22 23.2667 148.227 22.8267 148.227 22.28C148.24 21.72 148.247 21.14 148.247 20.54C148.26 19.9267 148.267 19.38 148.267 18.9V16.2C148.267 15.36 148.134 14.7733 147.867 14.44C147.614 14.0933 147.234 13.92 146.727 13.92C146.327 13.92 145.834 14.08 145.247 14.4C144.66 14.7067 144.06 15.22 143.447 15.94L143.367 15.08H143.667C144.414 14.1333 145.12 13.48 145.787 13.12C146.467 12.7467 147.167 12.56 147.887 12.56C148.82 12.56 149.56 12.8667 150.107 13.48C150.667 14.0933 150.947 15.06 150.947 16.38V18.9C150.947 19.38 150.947 19.9267 150.947 20.54C150.96 21.14 150.974 21.72 150.987 22.28C151 22.8267 151.014 23.2667 151.027 23.6H148.207ZM153.638 23.6V23L155.758 22.8H157.038L159.258 23V23.6H153.638ZM155.078 23.6C155.092 23.36 155.098 23.0467 155.098 22.66C155.112 22.2733 155.118 21.8533 155.118 21.4C155.132 20.9467 155.138 20.5067 155.138 20.08C155.138 19.64 155.138 19.2467 155.138 18.9V8.64001L153.578 8.54001V8.00001L157.618 7.22L157.918 7.4L157.838 10.58V18.78C157.838 19.1533 157.838 19.5667 157.838 20.02C157.838 20.46 157.838 20.9133 157.838 21.38C157.852 21.8467 157.865 22.2733 157.878 22.66C157.892 23.0467 157.905 23.36 157.918 23.6H155.078ZM156.458 20.08V19.2H156.578L159.778 16.04L163.018 12.88H164.178L156.458 20.08ZM161.958 23.6L158.858 17.6L160.738 15.86L164.478 22.88L165.858 23V23.6H161.958ZM160.198 13.48V12.88H165.298V13.48L162.958 13.7L162.538 13.76L160.198 13.48Z" fill="#1F2937"/>
<defs>
<clipPath id="clip0_374_1419">
<rect width="21" height="24" fill="white" transform="translate(13 3.79999)"/>
</clipPath>
</defs>
</svg>
