<svg width="18" height="21" viewBox="0 0 18 21" fill="none" xmlns="http://www.w3.org/2000/svg">
<g clip-path="url(#clip0_374_1407)">
<path d="M8.91162 5.80859C6.42725 5.80859 4.42334 7.8125 4.42334 10.2969C4.42334 12.7812 6.42725 14.7852 8.91162 14.7852C11.396 14.7852 13.3999 12.7812 13.3999 10.2969C13.3999 7.8125 11.396 5.80859 8.91162 5.80859ZM8.91162 13.2148C7.30615 13.2148 5.99365 11.9062 5.99365 10.2969C5.99365 8.6875 7.30225 7.37891 8.91162 7.37891C10.521 7.37891 11.8296 8.6875 11.8296 10.2969C11.8296 11.9062 10.5171 13.2148 8.91162 13.2148ZM14.6304 5.625C14.6304 6.20703 14.1616 6.67188 13.5835 6.67188C13.0015 6.67188 12.5366 6.20312 12.5366 5.625C12.5366 5.04688 13.0054 4.57812 13.5835 4.57812C14.1616 4.57812 14.6304 5.04688 14.6304 5.625ZM17.603 6.6875C17.5366 5.28516 17.2163 4.04297 16.189 3.01953C15.1655 1.99609 13.9233 1.67578 12.521 1.60547C11.0757 1.52344 6.74365 1.52344 5.29834 1.60547C3.8999 1.67188 2.65771 1.99219 1.63037 3.01562C0.603027 4.03906 0.286621 5.28125 0.216309 6.68359C0.134277 8.12891 0.134277 12.4609 0.216309 13.9062C0.282715 15.3086 0.603027 16.5508 1.63037 17.5742C2.65771 18.5977 3.896 18.918 5.29834 18.9883C6.74365 19.0703 11.0757 19.0703 12.521 18.9883C13.9233 18.9219 15.1655 18.6016 16.189 17.5742C17.2124 16.5508 17.5327 15.3086 17.603 13.9062C17.6851 12.4609 17.6851 8.13281 17.603 6.6875ZM15.7358 15.457C15.4312 16.2227 14.8413 16.8125 14.0718 17.1211C12.9194 17.5781 10.1851 17.4727 8.91162 17.4727C7.63818 17.4727 4.8999 17.5742 3.75146 17.1211C2.98584 16.8164 2.396 16.2266 2.0874 15.457C1.63037 14.3047 1.73584 11.5703 1.73584 10.2969C1.73584 9.02344 1.63428 6.28516 2.0874 5.13672C2.39209 4.37109 2.98193 3.78125 3.75146 3.47266C4.90381 3.01562 7.63818 3.12109 8.91162 3.12109C10.1851 3.12109 12.9233 3.01953 14.0718 3.47266C14.8374 3.77734 15.4272 4.36719 15.7358 5.13672C16.1929 6.28906 16.0874 9.02344 16.0874 10.2969C16.0874 11.5703 16.1929 14.3086 15.7358 15.457Z" fill="#9CA3AF"/>
</g>
<defs>
<clipPath id="clip0_374_1407">
<rect width="17.5" height="20" fill="white" transform="translate(0.157715 0.300781)"/>
</clipPath>
</defs>
</svg>
