<svg width="16" height="16" viewBox="0 0 16 16" fill="none" xmlns="http://www.w3.org/2000/svg">
<path d="M9.71436 6.15001V8.69063C9.71436 8.75626 9.66436 8.80626 9.59874 8.80626H9.19249C9.15186 8.80626 9.11749 8.78438 9.09874 8.75938L7.93311 7.18751V8.69376C7.93311 8.75938 7.88311 8.80938 7.81749 8.80938H7.41124C7.34561 8.80938 7.29561 8.75938 7.29561 8.69376V6.15313C7.29561 6.08751 7.34561 6.03751 7.41124 6.03751H7.81436C7.84874 6.03751 7.88936 6.05626 7.90811 6.08751L9.07374 7.65938V6.15313C9.07374 6.08751 9.12374 6.03751 9.18936 6.03751H9.59561C9.66124 6.03438 9.71436 6.08751 9.71436 6.14688V6.15001ZM6.78624 6.03438H6.37999C6.31436 6.03438 6.26436 6.08438 6.26436 6.15001V8.69063C6.26436 8.75626 6.31436 8.80626 6.37999 8.80626H6.78624C6.85186 8.80626 6.90186 8.75626 6.90186 8.69063V6.15001C6.90186 6.09063 6.85186 6.03438 6.78624 6.03438ZM5.80499 8.16251H4.69249V6.15001C4.69249 6.08438 4.64249 6.03438 4.57686 6.03438H4.17061C4.10499 6.03438 4.05499 6.08438 4.05499 6.15001V8.69063C4.05499 8.72188 4.06436 8.74688 4.08624 8.76876C4.10811 8.78751 4.13311 8.80001 4.16436 8.80001H5.79561C5.86124 8.80001 5.91124 8.75001 5.91124 8.68438V8.27813C5.91124 8.21876 5.86124 8.16251 5.80186 8.16251H5.80499ZM11.8581 6.03438H10.2237C10.1644 6.03438 10.1081 6.08438 10.1081 6.15001V8.69063C10.1081 8.75001 10.1581 8.80626 10.2237 8.80626H11.855C11.9206 8.80626 11.9706 8.75626 11.9706 8.69063V8.28126C11.9706 8.21563 11.9206 8.16563 11.855 8.16563H10.7456V7.74063H11.855C11.9206 7.74063 11.9706 7.69063 11.9706 7.62501V7.21563C11.9706 7.15001 11.9206 7.10001 11.855 7.10001H10.7456V6.67188H11.855C11.9206 6.67188 11.9706 6.62188 11.9706 6.55626V6.15001C11.9675 6.09063 11.9175 6.03438 11.855 6.03438H11.8581ZM15.9956 2.91876V13.1063C15.9925 14.7063 14.68 16.0031 13.0769 16H2.88936C1.28936 15.9969 -0.0075139 14.6813 -0.0043889 13.0813V2.89376C-0.0012639 1.29376 1.31436 -0.00311936 2.91436 5.63575e-06H13.1019C14.7019 0.00313064 15.9987 1.31563 15.9956 2.91876ZM13.7956 7.29688C13.7956 4.69063 11.18 2.56876 7.97061 2.56876C4.76124 2.56876 2.14561 4.69063 2.14561 7.29688C2.14561 9.63126 4.21749 11.5906 7.01749 11.9625C7.69874 12.1094 7.62061 12.3594 7.46749 13.2781C7.44249 13.425 7.34874 13.8531 7.97061 13.5938C8.59249 13.3344 11.3237 11.6188 12.5487 10.2125C13.3925 9.28438 13.7956 8.34376 13.7956 7.30313V7.29688Z" fill="white"/>
</svg>
