<svg width="65" height="64" viewBox="0 0 65 64" fill="none" xmlns="http://www.w3.org/2000/svg">
<path d="M0.0161133 32C0.0161133 14.3269 14.343 0 32.0161 0C49.6892 0 64.0161 14.3269 64.0161 32C64.0161 49.6731 49.6892 64 32.0161 64C14.343 64 0.0161133 49.6731 0.0161133 32Z" fill="#FF0050" fill-opacity="0.1"/>
<g clip-path="url(#clip0_374_928)">
<path d="M26.7661 36.5C32.1521 36.5 36.5161 32.8062 36.5161 28.25C36.5161 23.6938 32.1521 20 26.7661 20C21.3802 20 17.0161 23.6938 17.0161 28.25C17.0161 30.0594 17.7052 31.7328 18.8724 33.0969C18.7083 33.5375 18.4646 33.9266 18.2068 34.2547C17.9818 34.5453 17.7521 34.7703 17.5833 34.925C17.499 35 17.4286 35.0609 17.3818 35.0984C17.3583 35.1172 17.3396 35.1312 17.3302 35.1359L17.3208 35.1453C17.063 35.3375 16.9505 35.675 17.0536 35.9797C17.1568 36.2844 17.4427 36.5 17.7661 36.5C18.788 36.5 19.8193 36.2375 20.6771 35.9141C21.1083 35.75 21.5115 35.5672 21.863 35.3797C23.3021 36.0922 24.9755 36.5 26.7661 36.5ZM38.0161 28.25C38.0161 33.5141 33.3708 37.4797 27.8677 37.9531C29.0068 41.4406 32.7849 44 37.2661 44C39.0568 44 40.7302 43.5922 42.174 42.8797C42.5255 43.0672 42.924 43.25 43.3552 43.4141C44.213 43.7375 45.2443 44 46.2661 44C46.5896 44 46.8802 43.7891 46.9786 43.4797C47.0771 43.1703 46.9693 42.8328 46.7068 42.6406L46.6974 42.6312C46.688 42.6219 46.6693 42.6125 46.6458 42.5938C46.5989 42.5562 46.5286 42.5 46.4443 42.4203C46.2755 42.2656 46.0458 42.0406 45.8208 41.75C45.563 41.4219 45.3193 41.0281 45.1552 40.5922C46.3224 39.2328 47.0115 37.5594 47.0115 35.7453C47.0115 31.3953 43.0318 27.8281 37.9833 27.5187C38.0021 27.7578 38.0115 28.0016 38.0115 28.2453L38.0161 28.25Z" fill="#9C27B0"/>
</g>
<defs>
<clipPath id="clip0_374_928">
<rect width="30" height="24" fill="white" transform="translate(17.0161 20)"/>
</clipPath>
</defs>
</svg>
