<svg width="58" height="49" viewBox="0 0 58 49" fill="none" xmlns="http://www.w3.org/2000/svg">
<path d="M0.390625 24.6001C0.390625 11.3453 11.1358 0.600098 24.3906 0.600098H33.3827C46.6375 0.600098 57.3827 11.3453 57.3827 24.6001C57.3827 37.8549 46.6375 48.6001 33.3827 48.6001H24.3906C11.1358 48.6001 0.390625 37.8549 0.390625 24.6001Z" fill="#EAB308"/>
<g clip-path="url(#clip0_374_1362)">
<path d="M17.1406 18.2944V30.3959C17.1406 31.099 17.5352 31.7631 18.1953 32.0092C21.5938 33.2787 24.9922 32.4115 28.3906 31.5444C31.5078 30.7514 34.625 29.9545 37.7383 30.8061C38.6367 31.0522 39.6406 30.435 39.6406 29.5014V17.4037C39.6406 16.7006 39.2461 16.0365 38.5859 15.7905C35.1875 14.5209 31.7891 15.3881 28.3906 16.2553C25.2734 17.0483 22.1562 17.8412 19.043 16.9897C18.1406 16.7436 17.1406 17.3608 17.1406 18.2944ZM28.3906 27.6498C26.6641 27.6498 25.2656 25.9701 25.2656 23.8998C25.2656 21.8295 26.6641 20.1498 28.3906 20.1498C30.1172 20.1498 31.5156 21.8295 31.5156 23.8998C31.5156 25.9701 30.1172 27.6498 28.3906 27.6498ZM19.6406 27.6498C21.0195 27.6498 22.1406 28.7709 22.1406 30.1498H19.6406V27.6498ZM22.1406 19.5248C22.1406 20.9037 21.0195 22.0248 19.6406 22.0248V19.5248H22.1406ZM37.1406 25.7748V28.2748H34.6406C34.6406 26.8959 35.7617 25.7748 37.1406 25.7748ZM34.6406 17.6498H37.1406V20.1498C35.7617 20.1498 34.6406 19.0287 34.6406 17.6498Z" fill="white"/>
</g>
<defs>
<clipPath id="clip0_374_1362">
<rect width="22.5" height="20" fill="white" transform="translate(17.1406 13.8999)"/>
</clipPath>
</defs>
</svg>
