<svg width="66" height="62" viewBox="0 0 66 62" fill="none" xmlns="http://www.w3.org/2000/svg">
<path d="M0.900879 14C0.900879 6.26801 7.16889 0 14.9009 0C22.6329 0 28.9009 6.26801 28.9009 14C28.9009 21.732 22.6329 28 14.9009 28C7.16889 28 0.900879 21.732 0.900879 14Z" fill="#FF2D55"/>
<path d="M11.672 19V18.566L13.394 18.286H15.522L17.076 18.622V19.042L11.672 19ZM13.24 19C13.268 17.8893 13.282 16.7833 13.282 15.682V9.536L11.644 9.732V9.228L15.424 8.374L15.634 8.514L15.578 10.796V15.682C15.578 16.2233 15.5827 16.774 15.592 17.334C15.6107 17.894 15.6247 18.4493 15.634 19H13.24Z" fill="white"/>
<path d="M47.0571 32.45V40.0719C47.0571 40.2687 46.9071 40.4187 46.7102 40.4187H45.4915C45.3696 40.4187 45.2665 40.3531 45.2103 40.2781L41.7134 35.5625V40.0812C41.7134 40.2781 41.5634 40.4281 41.3665 40.4281H40.1478C39.9509 40.4281 39.8009 40.2781 39.8009 40.0812V32.4594C39.8009 32.2625 39.9509 32.1125 40.1478 32.1125H41.3571C41.4603 32.1125 41.5821 32.1688 41.6384 32.2625L45.1353 36.9781V32.4594C45.1353 32.2625 45.2853 32.1125 45.4821 32.1125H46.7009C46.8978 32.1031 47.0571 32.2625 47.0571 32.4406V32.45ZM38.2728 32.1031H37.054C36.8571 32.1031 36.7071 32.2531 36.7071 32.45V40.0719C36.7071 40.2687 36.8571 40.4187 37.054 40.4187H38.2728C38.4696 40.4187 38.6196 40.2687 38.6196 40.0719V32.45C38.6196 32.2719 38.4696 32.1031 38.2728 32.1031ZM35.329 38.4875H31.9915V32.45C31.9915 32.2531 31.8415 32.1031 31.6446 32.1031H30.4259C30.229 32.1031 30.079 32.2531 30.079 32.45V40.0719C30.079 40.1656 30.1071 40.2406 30.1728 40.3062C30.2384 40.3625 30.3134 40.4 30.4071 40.4H35.3009C35.4978 40.4 35.6478 40.25 35.6478 40.0531V38.8344C35.6478 38.6562 35.4978 38.4875 35.3196 38.4875H35.329ZM53.4884 32.1031H48.5852C48.4071 32.1031 48.2384 32.2531 48.2384 32.45V40.0719C48.2384 40.25 48.3884 40.4187 48.5852 40.4187H53.479C53.6759 40.4187 53.8259 40.2687 53.8259 40.0719V38.8438C53.8259 38.6469 53.6759 38.4969 53.479 38.4969H50.1509V37.2219H53.479C53.6759 37.2219 53.8259 37.0719 53.8259 36.875V35.6469C53.8259 35.45 53.6759 35.3 53.479 35.3H50.1509V34.0156H53.479C53.6759 34.0156 53.8259 33.8656 53.8259 33.6688V32.45C53.8165 32.2719 53.6665 32.1031 53.479 32.1031H53.4884ZM65.9009 22.7563V53.3187C65.8915 58.1187 61.954 62.0094 57.1446 62H26.5821C21.7821 61.9906 17.8915 58.0437 17.9009 53.2437V22.6813C17.9103 17.8813 21.8571 13.9906 26.6571 14H57.2196C62.0196 14.0094 65.9102 17.9469 65.9009 22.7563ZM59.3009 35.8906C59.3009 28.0719 51.454 21.7063 41.8259 21.7063C32.1978 21.7063 24.3509 28.0719 24.3509 35.8906C24.3509 42.8937 30.5665 48.7719 38.9665 49.8875C41.0103 50.3281 40.7759 51.0781 40.3165 53.8344C40.2415 54.275 39.9603 55.5594 41.8259 54.7812C43.6915 54.0031 51.8852 48.8562 55.5602 44.6375C58.0915 41.8531 59.3009 39.0312 59.3009 35.9094V35.8906Z" fill="#FF2D55"/>
</svg>
