<svg width="18" height="15" viewBox="0 0 18 15" fill="none" xmlns="http://www.w3.org/2000/svg">
<path d="M2.44946 3.6766C2.40051 2.74963 2.72181 1.84119 3.34266 1.15111C3.96351 0.461037 4.83307 0.0458584 5.76003 -0.00308906C6.687 -0.0520366 7.59544 0.269257 8.28552 0.89011C8.9756 1.51096 9.39077 2.38052 9.43972 3.30748C9.48867 4.23445 9.16738 5.1429 8.54652 5.83297C7.92567 6.52305 7.05611 6.93822 6.12915 6.98717C5.20218 7.03612 4.29374 6.71483 3.60366 6.09397C2.91359 5.47312 2.49841 4.60356 2.44946 3.6766ZM0.338959 13.4894C0.196937 10.7998 2.26087 8.50576 4.95049 8.36374L7.44623 8.23195C10.1358 8.08993 12.4299 10.1539 12.5719 12.8435C12.5956 13.2913 12.2516 13.6736 11.8038 13.6973L1.19276 14.2576C0.744948 14.2812 0.362605 13.9372 0.338959 13.4894ZM17.0192 13.4219L13.2537 13.6207C13.3876 13.3563 13.4593 13.054 13.4424 12.7345L13.4308 12.5161C13.3433 10.8586 12.5248 9.40955 11.306 8.47173C11.3714 8.46554 11.4341 8.45949 11.4996 8.45603L13.1762 8.3675C15.6091 8.23903 17.6847 10.1064 17.8132 12.5393C17.8377 13.0035 17.4806 13.3975 17.0192 13.4219ZM11.8087 6.68727C10.9623 6.73196 10.1795 6.42828 9.59596 5.90325C10.0955 5.14851 10.3648 4.23343 10.3135 3.26135C10.2749 2.52955 10.0582 1.84823 9.70668 1.25892C10.195 0.860741 10.8086 0.606547 11.4858 0.570789C13.176 0.481538 14.6162 1.77732 14.7055 3.46754C14.7947 5.15776 13.499 6.59802 11.8087 6.68727Z" fill="#1F2937"/>
</svg>
