<svg width="65" height="64" viewBox="0 0 65 64" fill="none" xmlns="http://www.w3.org/2000/svg">
<path d="M0.074707 32C0.074707 14.3269 14.4016 0 32.0747 0C49.7478 0 64.0747 14.3269 64.0747 32C64.0747 49.6731 49.7478 64 32.0747 64C14.4016 64 0.074707 49.6731 0.074707 32Z" fill="#FF0050" fill-opacity="0.1"/>
<g clip-path="url(#clip0_374_912)">
<path d="M32.5747 32C30.9834 32 29.4573 31.3679 28.3321 30.2426C27.2068 29.1174 26.5747 27.5913 26.5747 26C26.5747 24.4087 27.2068 22.8826 28.3321 21.7574C29.4573 20.6321 30.9834 20 32.5747 20C34.166 20 35.6921 20.6321 36.8173 21.7574C37.9426 22.8826 38.5747 24.4087 38.5747 26C38.5747 27.5913 37.9426 29.1174 36.8173 30.2426C35.6921 31.3679 34.166 32 32.5747 32ZM31.8763 36.8375L31.0044 35.3844C30.7044 34.8828 31.0653 34.25 31.6466 34.25H32.5747H33.4981C34.0794 34.25 34.4403 34.8875 34.1403 35.3844L33.2685 36.8375L34.8341 42.6453L36.5216 35.7594C36.6153 35.3797 36.981 35.1312 37.3606 35.2297C40.6466 36.0547 43.0747 39.0266 43.0747 42.5609C43.0747 43.3578 42.4278 44 41.6356 44H35.4575C35.3591 44 35.27 43.9812 35.1856 43.9484L35.1997 44H29.9497L29.9638 43.9484C29.8794 43.9812 29.7856 44 29.6919 44H23.5138C22.7216 44 22.0747 43.3531 22.0747 42.5609C22.0747 39.0219 24.5075 36.05 27.7888 35.2297C28.1685 35.1359 28.5341 35.3844 28.6278 35.7594L30.3153 42.6453L31.881 36.8375H31.8763Z" fill="#00F2EA"/>
</g>
<defs>
<clipPath id="clip0_374_912">
<rect width="21" height="24" fill="white" transform="translate(22.0747 20)"/>
</clipPath>
</defs>
</svg>
