<svg width="77" height="64" viewBox="0 0 77 64" fill="none" xmlns="http://www.w3.org/2000/svg">
<path d="M0.90625 32C0.90625 14.3269 15.2331 0 32.9062 0H44.8957C62.5688 0 76.8957 14.3269 76.8957 32C76.8957 49.6731 62.5688 64 44.8957 64H32.9062C15.2331 64 0.90625 49.6731 0.90625 32Z" fill="#00F2EA" fill-opacity="0.1"/>
<g clip-path="url(#clip0_374_747)">
<path d="M30.6562 22.8C30.6562 21.1454 32.0016 19.8 33.6562 19.8H44.1562C45.8109 19.8 47.1562 21.1454 47.1562 22.8V40.8C47.1562 42.4547 45.8109 43.8 44.1562 43.8H33.6562C32.0016 43.8 30.6562 42.4547 30.6562 40.8V22.8ZM40.4062 40.8C40.4062 40.4022 40.2482 40.0207 39.9669 39.7394C39.6856 39.4581 39.3041 39.3 38.9062 39.3C38.5084 39.3 38.1269 39.4581 37.8456 39.7394C37.5643 40.0207 37.4062 40.4022 37.4062 40.8C37.4062 41.1979 37.5643 41.5794 37.8456 41.8607C38.1269 42.142 38.5084 42.3 38.9062 42.3C39.3041 42.3 39.6856 42.142 39.9669 41.8607C40.2482 41.5794 40.4062 41.1979 40.4062 40.8ZM44.1562 22.8H33.6562V37.8H44.1562V22.8Z" fill="#00F2EA"/>
</g>
<defs>
<clipPath id="clip0_374_747">
<rect width="18" height="24" fill="white" transform="translate(29.9062 19.8)"/>
</clipPath>
</defs>
</svg>
