<svg width="62" height="58" viewBox="0 0 62 58" fill="none" xmlns="http://www.w3.org/2000/svg">
<rect x="0.0644531" y="0.825195" width="27" height="28" rx="13.5" fill="#25D366"/>
<path d="M12.3305 20.5632C11.3505 20.5632 10.5758 20.3392 10.0065 19.8912C9.44645 19.4432 9.13845 18.8365 9.08245 18.0712C9.15712 17.8565 9.27845 17.6979 9.44645 17.5952C9.61445 17.4925 9.79645 17.4412 9.99245 17.4412C10.2818 17.4412 10.5105 17.5299 10.6785 17.7072C10.8465 17.8752 10.9491 18.1645 10.9865 18.5752L11.2105 20.1152L10.7345 19.7652C10.9491 19.8772 11.1358 19.9565 11.2945 20.0032C11.4625 20.0499 11.6725 20.0732 11.9245 20.0732C12.5685 20.0732 13.0865 19.8445 13.4785 19.3872C13.8705 18.9205 14.0665 18.2439 14.0665 17.3572C14.0665 16.5545 13.8751 15.9339 13.4925 15.4952C13.1098 15.0565 12.5918 14.8372 11.9385 14.8372C11.6771 14.8372 11.4251 14.8605 11.1825 14.9072C10.9398 14.9445 10.6971 15.0005 10.4545 15.0752L10.0345 14.7952L10.3705 9.86719H16.0965V11.6032H10.6645L11.0285 10.3152L10.7205 14.7392L10.1325 14.5572C10.5431 14.3799 10.9491 14.2585 11.3505 14.1932C11.7611 14.1185 12.1905 14.0812 12.6385 14.0812C13.8238 14.0812 14.7571 14.3519 15.4385 14.8932C16.1198 15.4252 16.4605 16.2139 16.4605 17.2592C16.4605 17.9779 16.2831 18.5845 15.9285 19.0792C15.5738 19.5645 15.0838 19.9332 14.4585 20.1852C13.8425 20.4372 13.1331 20.5632 12.3305 20.5632Z" fill="white"/>
<path d="M26.4878 45.0582L23.4704 42.0409C22.6404 41.2108 22.3474 40.0097 22.7185 38.8966C23.0115 38.0275 23.402 36.8948 23.8708 35.5961H13.5393C12.6995 35.5961 11.9183 35.1469 11.4984 34.4145C11.0785 33.6821 11.0882 32.7838 11.5179 32.0612L16.6446 23.4193C17.9141 21.2808 20.2088 19.9722 22.6892 19.9722H30.7259C30.9602 19.5816 31.1946 19.2203 31.429 18.8688C39.4266 7.07284 51.3401 6.68225 58.4491 7.99074C59.5818 8.1958 60.4607 9.0844 60.6755 10.2171C61.984 17.3357 61.5836 29.2391 49.7972 37.2365C49.4554 37.4709 49.0843 37.7053 48.6937 37.9397V45.9761C48.6937 48.4564 47.3852 50.7609 45.2466 52.0206L36.6045 57.1471C35.8819 57.5768 34.9835 57.5865 34.2511 57.1667C33.5187 56.7468 33.0695 55.9754 33.0695 55.1258V44.6578C31.6926 45.1364 30.4915 45.527 29.5834 45.8199C28.4897 46.1715 27.2983 45.8686 26.4781 45.0582H26.4878ZM48.6937 23.8782C49.7297 23.8782 50.7232 23.4667 51.4557 22.7342C52.1883 22.0017 52.5998 21.0082 52.5998 19.9722C52.5998 18.9363 52.1883 17.9428 51.4557 17.2103C50.7232 16.4778 49.7297 16.0663 48.6937 16.0663C47.6578 16.0663 46.6643 16.4778 45.9318 17.2103C45.1993 17.9428 44.7877 18.9363 44.7877 19.9722C44.7877 21.0082 45.1993 22.0017 45.9318 22.7342C46.6643 23.4667 47.6578 23.8782 48.6937 23.8782Z" fill="#25D366"/>
</svg>
