<svg width="58" height="67" viewBox="0 0 58 67" fill="none" xmlns="http://www.w3.org/2000/svg">
<path d="M3.73112 14.8252C1.71442 14.8252 0.0644531 16.4966 0.0644531 18.5395V63.1109C0.0644531 65.1537 1.71442 66.8252 3.73112 66.8252H40.3978C42.4145 66.8252 44.0645 65.1537 44.0645 63.1109V25.968L33.0645 14.8252H3.73112ZM3.73112 18.5395H29.3978V29.6823H40.3978V63.1109H3.73112V18.5395ZM7.39779 37.1109V40.8252H36.7311V37.1109H7.39779ZM7.39779 44.5394V48.2537H36.7311V44.5394H7.39779ZM7.39779 51.968V55.6824H25.7311V51.968H7.39779Z" fill="#FF2D55"/>
<rect x="29.3145" y="1.0752" width="27.5" height="27.5" rx="13.75" fill="#FF0050" fill-opacity="0.1"/>
<rect x="29.3145" y="1.0752" width="27.5" height="27.5" rx="13.75" stroke="#FF0050" stroke-width="0.5"/>
<path d="M43.0605 20.0052V17.3892V17.1372V11.7852H42.8445L43.2645 11.6772L41.7045 14.0892L39.9165 16.8492L40.0485 16.3212V16.5492H46.0845V17.7972H39.4605V16.7892L43.4325 10.7052H44.7765V20.0052H43.0605Z" fill="#1F2937"/>
</svg>
