<svg width="67" height="56" viewBox="0 0 67 56" fill="none" xmlns="http://www.w3.org/2000/svg">
<rect x="39.25" y="1.0752" width="27.5" height="27.5" rx="13.75" fill="#FFF2F6"/>
<rect x="39.25" y="1.0752" width="27.5" height="27.5" rx="13.75" stroke="#FF0050" stroke-width="0.5"/>
<path d="M49.6435 20V18.92C49.9955 18.544 50.3355 18.172 50.6635 17.804C50.9915 17.428 51.3035 17.072 51.5995 16.736C52.0395 16.24 52.3955 15.808 52.6675 15.44C52.9475 15.064 53.1555 14.7 53.2915 14.348C53.4275 13.988 53.4955 13.592 53.4955 13.16C53.4955 12.544 53.3635 12.072 53.0995 11.744C52.8355 11.408 52.4715 11.24 52.0075 11.24C51.8395 11.24 51.6675 11.26 51.4915 11.3C51.3155 11.34 51.1355 11.404 50.9515 11.492L51.5515 11.228L51.2995 12.524C51.2355 12.932 51.1155 13.204 50.9395 13.34C50.7635 13.468 50.5835 13.532 50.3995 13.532C50.2235 13.532 50.0635 13.484 49.9195 13.388C49.7835 13.292 49.6835 13.168 49.6195 13.016C49.6435 12.536 49.7995 12.136 50.0875 11.816C50.3755 11.488 50.7475 11.244 51.2035 11.084C51.6595 10.916 52.1515 10.832 52.6795 10.832C53.6315 10.832 54.3315 11.064 54.7795 11.528C55.2275 11.984 55.4515 12.568 55.4515 13.28C55.4515 13.712 55.3275 14.12 55.0795 14.504C54.8315 14.888 54.4595 15.3 53.9635 15.74C53.4755 16.172 52.8595 16.68 52.1155 17.264C51.9715 17.384 51.8035 17.524 51.6115 17.684C51.4195 17.836 51.2155 18.004 50.9995 18.188C50.7915 18.364 50.5795 18.548 50.3635 18.74L50.5075 18.284V18.524H55.6675V20H49.6435Z" fill="#1F2937"/>
<path d="M19.5662 40.6504C30.3384 40.6504 39.0668 33.2629 39.0668 24.1504C39.0668 15.0379 30.3384 7.65039 19.5662 7.65039C8.79393 7.65039 0.0654792 15.0379 0.0654792 24.1504C0.0654792 27.7691 1.44365 31.116 3.7781 33.8442C3.44997 34.7254 2.96245 35.5036 2.44681 36.1598C1.9968 36.741 1.5374 37.191 1.19989 37.5004C1.03114 37.6504 0.890506 37.7722 0.796756 37.8472C0.749872 37.8848 0.712376 37.913 0.693628 37.9223L0.674871 37.941C0.159238 38.3254 -0.0657759 39.0004 0.140481 39.6098C0.346746 40.2191 0.918633 40.6504 1.56553 40.6504C3.60935 40.6504 5.67192 40.1254 7.38759 39.4785C8.2501 39.1504 9.0564 38.7848 9.75957 38.4098C12.6378 39.8348 15.9848 40.6504 19.5662 40.6504ZM42.0669 24.1504C42.0669 34.6785 32.7759 42.6098 21.7694 43.5566C24.0475 50.5317 31.604 55.6504 40.5669 55.6504C44.1483 55.6504 47.4952 54.8348 50.3827 53.4098C51.0859 53.7848 51.8828 54.1504 52.7453 54.4785C54.461 55.1255 56.5237 55.6504 58.5674 55.6504C59.2143 55.6504 59.7956 55.2286 59.9925 54.6098C60.1894 53.991 59.9738 53.316 59.4487 52.9317L59.4299 52.913C59.4112 52.8942 59.3737 52.8754 59.3268 52.838C59.233 52.7629 59.0925 52.6504 58.9237 52.491C58.5861 52.1817 58.1267 51.7317 57.6767 51.1504C57.1611 50.4941 56.6736 49.7066 56.3455 48.8348C58.6799 46.116 60.0581 42.7692 60.0581 39.141C60.0581 30.441 52.0985 23.3067 42.0012 22.6879C42.0388 23.166 42.0575 23.6535 42.0575 24.141L42.0669 24.1504Z" fill="#FF2D55"/>
</svg>
