<svg width="62" height="59" viewBox="0 0 62 59" fill="none" xmlns="http://www.w3.org/2000/svg">
<rect x="0.314453" y="1.0752" width="27.5" height="27.5" rx="13.75" fill="#FF0050" fill-opacity="0.1"/>
<rect x="0.314453" y="1.0752" width="27.5" height="27.5" rx="13.75" stroke="#FF0050" stroke-width="0.5"/>
<path d="M13.4605 20.0292C12.5485 20.0292 11.8485 19.8412 11.3605 19.4652C10.8805 19.0892 10.6125 18.5652 10.5565 17.8932C10.6205 17.7012 10.7245 17.5612 10.8685 17.4732C11.0125 17.3852 11.1605 17.3412 11.3125 17.3412C11.5525 17.3412 11.7445 17.4172 11.8885 17.5692C12.0405 17.7132 12.1445 17.9852 12.2005 18.3852L12.4165 19.6812L11.8045 19.3332C11.9805 19.4212 12.1445 19.4892 12.2965 19.5372C12.4485 19.5852 12.6285 19.6092 12.8365 19.6092C13.4525 19.6092 13.9245 19.4372 14.2525 19.0932C14.5885 18.7492 14.7565 18.2412 14.7565 17.5692C14.7565 16.8572 14.5965 16.3172 14.2765 15.9492C13.9645 15.5812 13.5005 15.3972 12.8845 15.3972H12.4165V14.9292H12.8245C13.3525 14.9292 13.7765 14.7612 14.0965 14.4252C14.4245 14.0892 14.5885 13.5652 14.5885 12.8532C14.5885 12.2612 14.4605 11.8172 14.2045 11.5212C13.9485 11.2172 13.5925 11.0652 13.1365 11.0652C12.9765 11.0652 12.8005 11.0892 12.6085 11.1372C12.4245 11.1772 12.2205 11.2412 11.9965 11.3292L12.7525 11.0292L12.5125 12.2652C12.4565 12.5692 12.3445 12.7812 12.1765 12.9012C12.0085 13.0212 11.8205 13.0812 11.6125 13.0812C11.4605 13.0812 11.3245 13.0492 11.2045 12.9852C11.0925 12.9132 11.0045 12.8212 10.9405 12.7092C10.9565 12.2292 11.0885 11.8372 11.3365 11.5332C11.5925 11.2292 11.9285 11.0092 12.3445 10.8732C12.7605 10.7292 13.2125 10.6572 13.7005 10.6572C14.6525 10.6572 15.3565 10.8572 15.8125 11.2572C16.2685 11.6572 16.4965 12.1652 16.4965 12.7812C16.4965 13.1972 16.3965 13.5772 16.1965 13.9212C15.9965 14.2652 15.6725 14.5492 15.2245 14.7732C14.7765 14.9972 14.1725 15.1452 13.4125 15.2172V15.0252C14.2525 15.0652 14.9165 15.1972 15.4045 15.4212C15.8925 15.6452 16.2405 15.9412 16.4485 16.3092C16.6645 16.6692 16.7725 17.0852 16.7725 17.5572C16.7725 18.0452 16.6365 18.4772 16.3645 18.8532C16.1005 19.2212 15.7205 19.5092 15.2245 19.7172C14.7365 19.9252 14.1485 20.0292 13.4605 20.0292Z" fill="#1F2937"/>
<path d="M40 7C36.3333 7 32.85 8.48571 30.375 11.2714C27.9 14.0572 26.25 17.9571 26.25 21.8571V25.5714H21.6667C19.65 25.5714 18 27.2429 18 29.2857V55.2857C18 57.3285 19.65 59 21.6667 59H58.3333C60.35 59 62 57.3285 62 55.2857V29.2857C62 27.2429 60.35 25.5714 58.3333 25.5714H53.75V21.8571C53.75 17.9571 52.1 14.0572 49.625 11.2714C47.1501 8.48571 43.6667 7 40 7ZM40 10.7143C42.475 10.7143 44.7667 11.7357 46.4167 13.5928C48.0667 15.45 49.1667 18.05 49.1667 20.9286V25.5714H30.8333V20.9286C30.8333 18.05 31.9334 15.45 33.5833 13.5928C35.2333 11.7357 37.525 10.7143 40 10.7143ZM40 36.7142C42.0167 36.7142 43.6667 38.3857 43.6667 40.4285C43.6667 42.4714 42.0167 44.1428 40 44.1428C37.9834 44.1428 36.3333 42.4714 36.3333 40.4285C36.3333 38.3857 37.9834 36.7142 40 36.7142Z" fill="#FF2D55"/>
</svg>
