<svg width="66" height="63" viewBox="0 0 66 63" fill="none" xmlns="http://www.w3.org/2000/svg">
<path d="M14.0645 1.0752C21.6584 1.0752 27.8145 7.23128 27.8145 14.8252C27.8145 22.4191 21.6584 28.5752 14.0645 28.5752C6.47054 28.5752 0.314453 22.4191 0.314453 14.8252C0.314453 7.23128 6.47054 1.0752 14.0645 1.0752Z" fill="#FFF2F6"/>
<path d="M14.0645 1.0752C21.6584 1.0752 27.8145 7.23128 27.8145 14.8252C27.8145 22.4191 21.6584 28.5752 14.0645 28.5752C6.47054 28.5752 0.314453 22.4191 0.314453 14.8252C0.314453 7.23128 6.47054 1.0752 14.0645 1.0752Z" stroke="#FF0050" stroke-width="0.5"/>
<path d="M11.576 20V19.628L13.052 19.388H14.876L16.208 19.676V20.036L11.576 20ZM12.92 20C12.944 19.048 12.956 18.1 12.956 17.156V11.888L11.552 12.056V11.624L14.792 10.892L14.972 11.012L14.924 12.968V17.156C14.924 17.62 14.928 18.092 14.936 18.572C14.952 19.052 14.964 19.528 14.972 20H12.92Z" fill="#1F2937"/>
<path d="M46.2207 33.2752V40.8971C46.2207 41.0939 46.0707 41.2439 45.8738 41.2439H44.6551C44.5332 41.2439 44.4301 41.1783 44.3738 41.1033L40.877 36.3877V40.9064C40.877 41.1033 40.727 41.2533 40.5301 41.2533H39.3113C39.1145 41.2533 38.9645 41.1033 38.9645 40.9064V33.2846C38.9645 33.0877 39.1145 32.9377 39.3113 32.9377H40.5207C40.6238 32.9377 40.7457 32.9939 40.802 33.0877L44.2988 37.8033V33.2846C44.2988 33.0877 44.4488 32.9377 44.6457 32.9377H45.8645C46.0613 32.9283 46.2207 33.0877 46.2207 33.2658V33.2752ZM37.4363 32.9283H36.2176C36.0207 32.9283 35.8707 33.0783 35.8707 33.2752V40.8971C35.8707 41.0939 36.0207 41.2439 36.2176 41.2439H37.4363C37.6332 41.2439 37.7832 41.0939 37.7832 40.8971V33.2752C37.7832 33.0971 37.6332 32.9283 37.4363 32.9283ZM34.4926 39.3127H31.1551V33.2752C31.1551 33.0783 31.0051 32.9283 30.8082 32.9283H29.5895C29.3926 32.9283 29.2426 33.0783 29.2426 33.2752V40.8971C29.2426 40.9908 29.2707 41.0658 29.3363 41.1314C29.402 41.1877 29.477 41.2252 29.5707 41.2252H34.4645C34.6613 41.2252 34.8113 41.0752 34.8113 40.8783V39.6596C34.8113 39.4814 34.6613 39.3127 34.4832 39.3127H34.4926ZM52.6519 32.9283H47.7488C47.5707 32.9283 47.4019 33.0783 47.4019 33.2752V40.8971C47.4019 41.0752 47.5519 41.2439 47.7488 41.2439H52.6426C52.8394 41.2439 52.9894 41.0939 52.9894 40.8971V39.6689C52.9894 39.4721 52.8394 39.3221 52.6426 39.3221H49.3144V38.0471H52.6426C52.8394 38.0471 52.9894 37.8971 52.9894 37.7002V36.4721C52.9894 36.2752 52.8394 36.1252 52.6426 36.1252H49.3144V34.8408H52.6426C52.8394 34.8408 52.9894 34.6908 52.9894 34.4939V33.2752C52.9801 33.0971 52.8301 32.9283 52.6426 32.9283H52.6519ZM65.0644 23.5815V54.1439C65.0551 58.9439 61.1176 62.8346 56.3082 62.8252H25.7457C20.9457 62.8158 17.0551 58.8689 17.0645 54.0689V23.5065C17.0738 18.7065 21.0207 14.8158 25.8207 14.8252H56.3832C61.1832 14.8346 65.0738 18.7721 65.0644 23.5815ZM58.4644 36.7158C58.4644 28.8971 50.6176 22.5315 40.9895 22.5315C31.3613 22.5315 23.5145 28.8971 23.5145 36.7158C23.5145 43.7189 29.7301 49.5971 38.1301 50.7127C40.1738 51.1533 39.9395 51.9033 39.4801 54.6596C39.4051 55.1002 39.1238 56.3846 40.9895 55.6064C42.8551 54.8283 51.0488 49.6814 54.7238 45.4627C57.2551 42.6783 58.4644 39.8564 58.4644 36.7346V36.7158Z" fill="#FF2D55"/>
</svg>
