<svg width="65" height="58" viewBox="0 0 65 58" fill="none" xmlns="http://www.w3.org/2000/svg">
<rect x="0.866699" width="28" height="28" rx="14" fill="#FF2D55"/>
<path d="M13.8287 19.738C12.7647 19.738 11.948 19.5187 11.3787 19.08C10.8187 18.6413 10.506 18.03 10.4407 17.246C10.5154 17.022 10.6367 16.8587 10.8047 16.756C10.9727 16.6533 11.1454 16.602 11.3227 16.602C11.6027 16.602 11.8267 16.6907 11.9947 16.868C12.172 17.036 12.2934 17.3533 12.3587 17.82L12.6107 19.332L11.8967 18.926C12.102 19.0287 12.2934 19.108 12.4707 19.164C12.648 19.22 12.858 19.248 13.1007 19.248C13.8194 19.248 14.37 19.0473 14.7527 18.646C15.1447 18.2447 15.3407 17.652 15.3407 16.868C15.3407 16.0373 15.154 15.4073 14.7807 14.978C14.4167 14.5487 13.8754 14.334 13.1567 14.334H12.6107V13.788H13.0867C13.7027 13.788 14.1974 13.592 14.5707 13.2C14.9534 12.808 15.1447 12.1967 15.1447 11.366C15.1447 10.6753 14.9954 10.1573 14.6967 9.812C14.398 9.45733 13.9827 9.28 13.4507 9.28C13.264 9.28 13.0587 9.308 12.8347 9.364C12.62 9.41067 12.382 9.48533 12.1207 9.588L13.0027 9.238L12.7227 10.68C12.6574 11.0347 12.5267 11.282 12.3307 11.422C12.1347 11.562 11.9154 11.632 11.6727 11.632C11.4954 11.632 11.3367 11.5947 11.1967 11.52C11.066 11.436 10.9634 11.3287 10.8887 11.198C10.9074 10.638 11.0614 10.1807 11.3507 9.826C11.6494 9.47133 12.0414 9.21467 12.5267 9.056C13.012 8.888 13.5394 8.804 14.1087 8.804C15.2194 8.804 16.0407 9.03733 16.5727 9.504C17.1047 9.97067 17.3707 10.5633 17.3707 11.282C17.3707 11.7673 17.254 12.2107 17.0207 12.612C16.7874 13.0133 16.4094 13.3447 15.8867 13.606C15.364 13.8673 14.6594 14.04 13.7727 14.124V13.9C14.7527 13.9467 15.5274 14.1007 16.0967 14.362C16.666 14.6233 17.072 14.9687 17.3147 15.398C17.5667 15.818 17.6927 16.3033 17.6927 16.854C17.6927 17.4233 17.534 17.9273 17.2167 18.366C16.9087 18.7953 16.4654 19.1313 15.8867 19.374C15.3174 19.6167 14.6314 19.738 13.8287 19.738Z" fill="white"/>
<path d="M42.938 6C39.2713 6 35.788 7.48571 33.313 10.2714C30.8379 13.0572 29.188 16.9571 29.188 20.8571V24.5714H24.6047C22.588 24.5714 20.938 26.2429 20.938 28.2857V54.2857C20.938 56.3285 22.588 58 24.6047 58H61.2713C63.288 58 64.938 56.3285 64.938 54.2857V28.2857C64.938 26.2429 63.288 24.5714 61.2713 24.5714H56.688V20.8571C56.688 16.9571 55.038 13.0572 52.563 10.2714C50.088 7.48571 46.6047 6 42.938 6ZM42.938 9.71429C45.413 9.71429 47.7047 10.7357 49.3547 12.5928C51.0047 14.45 52.1047 17.05 52.1047 19.9286V24.5714H33.7713V19.9286C33.7713 17.05 34.8714 14.45 36.5213 12.5928C38.1713 10.7357 40.463 9.71429 42.938 9.71429ZM42.938 35.7142C44.9547 35.7142 46.6047 37.3857 46.6047 39.4285C46.6047 41.4714 44.9547 43.1428 42.938 43.1428C40.9214 43.1428 39.2713 41.4714 39.2713 39.4285C39.2713 37.3857 40.9214 35.7142 42.938 35.7142Z" fill="#FF2D55"/>
</svg>
