<svg width="14" height="16" viewBox="0 0 14 16" fill="none" xmlns="http://www.w3.org/2000/svg">
<g clip-path="url(#clip0_374_699)">
<path d="M12.8831 6.34318C11.6812 6.40954 10.4887 6.09655 9.47423 5.44845L9.73192 10.3285C9.77931 11.2324 9.54963 12.1292 9.07359 12.899C8.59755 13.6688 7.89784 14.2749 7.06802 14.6363C6.2382 14.9977 5.31783 15.0971 4.42996 14.9213C3.5421 14.7455 2.72906 14.3029 2.09958 13.6525C1.47009 13.0022 1.05415 12.1751 0.907387 11.282C0.760619 10.3889 0.890015 9.47224 1.27827 8.65464C1.66653 7.83704 2.29514 7.15746 3.08005 6.70677C3.86496 6.25607 4.76876 6.05575 5.6706 6.13258L5.80021 8.5871C5.38372 8.47986 4.944 8.50698 4.54384 8.66456C4.14368 8.82214 3.80355 9.10214 3.57201 9.46456C3.34047 9.82699 3.22938 10.2533 3.25458 10.6826C3.27979 11.112 3.44001 11.5224 3.71237 11.8552C3.98473 12.188 4.35529 12.4263 4.77114 12.536C5.18699 12.6456 5.62686 12.6211 6.02794 12.4659C6.42902 12.3107 6.77079 12.0327 7.00445 11.6716C7.23811 11.3105 7.3517 10.8849 7.32902 10.4554L6.82526 0.915339L9.22816 0.788457C9.23721 0.991464 9.26491 1.19321 9.31092 1.39114C9.41797 1.83277 9.61399 2.24791 9.88698 2.61118C10.16 2.97445 10.5042 3.27821 10.8986 3.50388C11.4603 3.83404 12.1066 3.9917 12.7572 3.95721L12.8831 6.34318Z" fill="#FF0050"/>
</g>
<defs>
<clipPath id="clip0_374_699">
<rect width="12.25" height="14" fill="white" transform="translate(0.347656 1.25739) rotate(-3.02264)"/>
</clipPath>
</defs>
</svg>
