<svg width="19" height="21" viewBox="0 0 19 21" fill="none" xmlns="http://www.w3.org/2000/svg">
<g clip-path="url(#clip0_374_1409)">
<path d="M18.158 8.50039C16.4383 8.5045 14.7607 7.96818 13.3623 6.96719V13.9484C13.3618 15.2414 12.9666 16.5035 12.2295 17.5658C11.4924 18.6281 10.4486 19.4401 9.23754 19.8932C8.0265 20.3462 6.70602 20.4188 5.45265 20.1011C4.19928 19.7834 3.07277 19.0906 2.22374 18.1154C1.37472 17.1402 0.84365 15.9291 0.701552 14.6439C0.559453 13.3587 0.813097 12.0608 1.42857 10.9237C2.04404 9.78657 2.992 8.86444 4.14569 8.28061C5.29938 7.69679 6.60382 7.4791 7.88458 7.65664V11.168C7.2985 10.9836 6.66916 10.9892 6.08643 11.1838C5.50369 11.3785 4.99737 11.7523 4.63977 12.2519C4.28216 12.7515 4.09155 13.3513 4.09517 13.9657C4.09879 14.58 4.29645 15.1776 4.65991 15.6729C5.02338 16.1682 5.53407 16.5361 6.11906 16.7239C6.70404 16.9116 7.3334 16.9098 7.91727 16.7185C8.50113 16.5273 9.00964 16.1565 9.37017 15.659C9.7307 15.1615 9.92482 14.5628 9.92481 13.9484V0.300781H13.3623C13.3599 0.59107 13.3842 0.880964 13.435 1.1668C13.5544 1.80488 13.8028 2.41188 14.1649 2.95068C14.527 3.48948 14.9952 3.94875 15.5408 4.30039C16.3171 4.81371 17.2273 5.08731 18.158 5.08711V8.50039Z" fill="#9CA3AF"/>
</g>
<defs>
<clipPath id="clip0_374_1409">
<rect width="17.5" height="20" fill="white" transform="translate(0.658203 0.300781)"/>
</clipPath>
</defs>
</svg>
