<svg width="21" height="17" viewBox="0 0 21 17" fill="none" xmlns="http://www.w3.org/2000/svg">
<path d="M18.1019 4.22691C18.1145 4.40457 18.1146 4.58227 18.1146 4.75992C18.1146 10.1787 13.9902 16.4223 6.45213 16.4223C4.12978 16.4223 1.97244 15.7497 0.157715 14.5823C0.487676 14.6203 0.804902 14.633 1.14756 14.633C3.06377 14.633 4.82775 13.9858 6.23639 12.8818C4.43436 12.8437 2.9242 11.6635 2.40389 10.0391C2.65771 10.0771 2.9115 10.1025 3.17803 10.1025C3.54604 10.1025 3.91408 10.0518 4.2567 9.96297C2.37854 9.58223 0.969863 7.9325 0.969863 5.94012V5.88937C1.51553 6.19394 2.1501 6.3843 2.82264 6.40965C1.71857 5.67359 0.995254 4.41727 0.995254 2.99594C0.995254 2.23453 1.19826 1.53656 1.55361 0.927422C3.57139 3.41473 6.60439 5.03906 10.0054 5.21676C9.94193 4.91219 9.90385 4.59496 9.90385 4.2777C9.90385 2.01879 11.7313 0.178711 14.0028 0.178711C15.183 0.178711 16.249 0.673633 16.9978 1.47312C17.9241 1.29547 18.8124 0.952813 19.5993 0.483281C19.2947 1.43508 18.6475 2.23457 17.7972 2.74215C18.6221 2.65336 19.4216 2.42488 20.1576 2.10766C19.5994 2.9198 18.9013 3.64313 18.1019 4.22691Z" fill="#9CA3AF"/>
</svg>
