<svg width="68" height="55" viewBox="0 0 68 55" fill="none" xmlns="http://www.w3.org/2000/svg">
<path d="M20.408 40C31.1802 40 39.9086 32.6126 39.9086 23.5C39.9086 14.3875 31.1802 7 20.408 7C9.63572 7 0.907276 14.3875 0.907276 23.5C0.907276 27.1188 2.28545 30.4656 4.6199 33.1938C4.29176 34.075 3.80425 34.8532 3.28861 35.5094C2.8386 36.0906 2.3792 36.5406 2.04169 36.85C1.87294 37 1.7323 37.1219 1.63855 37.1968C1.59167 37.2344 1.55417 37.2626 1.53542 37.2719L1.51667 37.2906C1.00103 37.675 0.776021 38.35 0.982278 38.9594C1.18854 39.5687 1.76043 40 2.40733 40C4.45114 40 6.51372 39.4751 8.22939 38.8281C9.09189 38.5 9.8982 38.1344 10.6014 37.7594C13.4796 39.1844 16.8266 40 20.408 40ZM42.9087 23.5C42.9087 34.0281 33.6177 41.9594 22.6112 42.9063C24.8893 49.8813 32.4458 55 41.4087 55C44.9901 55 48.337 54.1845 51.2245 52.7595C51.9277 53.1344 52.7246 53.5 53.5871 53.8281C55.3028 54.4751 57.3655 55 59.4092 55C60.0561 55 60.6374 54.5782 60.8343 53.9594C61.0312 53.3406 60.8156 52.6656 60.2905 52.2813L60.2717 52.2626C60.253 52.2438 60.2155 52.225 60.1686 52.1876C60.0748 52.1125 59.9343 52 59.7655 51.8406C59.4279 51.5313 58.9685 51.0813 58.5185 50.5C58.0029 49.8437 57.5154 49.0563 57.1873 48.1844C59.5217 45.4656 60.8999 42.1188 60.8999 38.4906C60.8999 29.7906 52.9403 22.6563 42.843 22.0375C42.8806 22.5156 42.8993 23.0031 42.8993 23.4906L42.9087 23.5Z" fill="#FF2D55"/>
<path d="M39.9062 14C39.9062 6.26801 46.1743 0 53.9062 0C61.6382 0 67.9062 6.26801 67.9062 14C67.9062 21.732 61.6382 28 53.9062 28C46.1743 28 39.9062 21.732 39.9062 14Z" fill="#FF2D55"/>
<path d="M49.826 19V17.74C50.2367 17.3013 50.6333 16.8673 51.016 16.438C51.3987 15.9993 51.7627 15.584 52.108 15.192C52.6213 14.6133 53.0367 14.1093 53.354 13.68C53.6807 13.2413 53.9233 12.8167 54.082 12.406C54.2407 11.986 54.32 11.524 54.32 11.02C54.32 10.3013 54.166 9.75067 53.858 9.368C53.55 8.976 53.1253 8.78 52.584 8.78C52.388 8.78 52.1873 8.80333 51.982 8.85C51.7767 8.89667 51.5667 8.97133 51.352 9.074L52.052 8.766L51.758 10.278C51.6833 10.754 51.5433 11.0713 51.338 11.23C51.1327 11.3793 50.9227 11.454 50.708 11.454C50.5027 11.454 50.316 11.398 50.148 11.286C49.9893 11.174 49.8727 11.0293 49.798 10.852C49.826 10.292 50.008 9.82533 50.344 9.452C50.68 9.06933 51.114 8.78467 51.646 8.598C52.178 8.402 52.752 8.304 53.368 8.304C54.4787 8.304 55.2953 8.57467 55.818 9.116C56.3407 9.648 56.602 10.3293 56.602 11.16C56.602 11.664 56.4573 12.14 56.168 12.588C55.8787 13.036 55.4447 13.5167 54.866 14.03C54.2967 14.534 53.578 15.1267 52.71 15.808C52.542 15.948 52.346 16.1113 52.122 16.298C51.898 16.4753 51.66 16.6713 51.408 16.886C51.1653 17.0913 50.918 17.306 50.666 17.53L50.834 16.998V17.278H56.854V19H49.826Z" fill="white"/>
</svg>
