<svg width="23" height="21" viewBox="0 0 23 21" fill="none" xmlns="http://www.w3.org/2000/svg">
<g clip-path="url(#clip0_374_1411)">
<path d="M21.6288 5.14777C21.3834 4.22395 20.6605 3.49637 19.7427 3.24945C18.079 2.80078 11.4079 2.80078 11.4079 2.80078C11.4079 2.80078 4.7368 2.80078 3.07309 3.24945C2.15523 3.49641 1.43234 4.22395 1.18699 5.14777C0.741211 6.82227 0.741211 10.3159 0.741211 10.3159C0.741211 10.3159 0.741211 13.8096 1.18699 15.4841C1.43234 16.4079 2.15523 17.1052 3.07309 17.3521C4.7368 17.8008 11.4079 17.8008 11.4079 17.8008C11.4079 17.8008 18.079 17.8008 19.7427 17.3521C20.6605 17.1052 21.3834 16.4079 21.6288 15.4841C22.0746 13.8096 22.0746 10.3159 22.0746 10.3159C22.0746 10.3159 22.0746 6.82227 21.6288 5.14777ZM9.22606 13.4879V7.14395L14.8018 10.316L9.22606 13.4879Z" fill="#9CA3AF"/>
</g>
<defs>
<clipPath id="clip0_374_1411">
<rect width="22.5" height="20" fill="white" transform="translate(0.158203 0.300781)"/>
</clipPath>
</defs>
</svg>
